<mxfile host="app.diagrams.net" modified="2023-07-12T17:13:33.795Z" agent="Mozilla/5.0 (Windows NT 10.0; Win64; x64; rv:109.0) Gecko/20100101 Firefox/115.0" etag="bXZdmv9BzJFdHMYeYWTr" version="21.6.1" type="github">
  <diagram name="Página-1" id="raKrGPhMi2ZnTzdbpExH">
    <mxGraphModel dx="989" dy="1708" grid="1" gridSize="10" guides="1" tooltips="1" connect="1" arrows="1" fold="1" page="1" pageScale="1" pageWidth="827" pageHeight="1169" math="0" shadow="0">
      <root>
        <mxCell id="0" />
        <mxCell id="1" parent="0" />
        <mxCell id="6cUFveTvzK2bHiBRzUhP-63" value="" style="rounded=1;whiteSpace=wrap;html=1;fillColor=none;strokeColor=#4D27AA;strokeWidth=2;perimeterSpacing=2;" parent="1" vertex="1">
          <mxGeometry x="260" y="120" width="410" height="400" as="geometry" />
        </mxCell>
        <mxCell id="-O9r-9XehU72l_ou3Ttp-30" value="" style="rounded=1;whiteSpace=wrap;html=1;fillColor=none;strokeColor=#FF9900;strokeWidth=2;perimeterSpacing=2;" vertex="1" parent="1">
          <mxGeometry x="218.32" y="70" width="480" height="460" as="geometry" />
        </mxCell>
        <mxCell id="-O9r-9XehU72l_ou3Ttp-17" value="" style="rounded=1;whiteSpace=wrap;html=1;fillColor=none;strokeColor=#006600;strokeWidth=2;perimeterSpacing=2;dashed=1;" vertex="1" parent="1">
          <mxGeometry x="310" y="320" width="300" height="180" as="geometry" />
        </mxCell>
        <mxCell id="qdr6XPL_uOaJqzebWcDb-9" value="" style="rounded=1;whiteSpace=wrap;html=1;fillColor=none;strokeColor=#0066CC;strokeWidth=2;perimeterSpacing=2;dashed=1;" parent="1" vertex="1">
          <mxGeometry x="300" y="130" width="220" height="170" as="geometry" />
        </mxCell>
        <mxCell id="6cUFveTvzK2bHiBRzUhP-64" value="&lt;font size=&quot;1&quot; color=&quot;#ff9900&quot;&gt;&lt;b style=&quot;font-size: 20px;&quot;&gt;REGIÃO&lt;/b&gt;&lt;/font&gt;" style="text;html=1;strokeColor=none;fillColor=none;align=center;verticalAlign=middle;whiteSpace=wrap;rounded=0;" parent="1" vertex="1">
          <mxGeometry x="280" y="15.79" width="70" height="50" as="geometry" />
        </mxCell>
        <mxCell id="nwyb9o0S90c7lTMV9y0D-2" value="&lt;font size=&quot;1&quot; color=&quot;#4d27aa&quot;&gt;&lt;b style=&quot;font-size: 20px;&quot;&gt;VPC&lt;/b&gt;&lt;/font&gt;" style="text;html=1;strokeColor=none;fillColor=none;align=center;verticalAlign=middle;whiteSpace=wrap;rounded=0;" parent="1" vertex="1">
          <mxGeometry x="430" y="80" width="70" height="50" as="geometry" />
        </mxCell>
        <mxCell id="-O9r-9XehU72l_ou3Ttp-13" value="" style="shape=image;verticalLabelPosition=bottom;labelBackgroundColor=default;verticalAlign=top;aspect=fixed;imageAspect=0;image=data:image/svg+xml,PHN2ZyB2aWV3Qm94PSIwIDAgNDI1IDQyNSIgaGVpZ2h0PSI0MjUiIHdpZHRoPSI0MjUiIHhtbG5zOnhsaW5rPSJodHRwOi8vd3d3LnczLm9yZy8xOTk5L3hsaW5rIiB4bWxucz0iaHR0cDovL3d3dy53My5vcmcvMjAwMC9zdmciPiYjeGE7ICA8aW1hZ2UgeGxpbms6aHJlZj0iZGF0YTppbWcvcG5nO2Jhc2U2NCxpVkJPUncwS0dnb0FBQUFOU1VoRVVnQUFBU1VBQUFFbENBWUFBQUNpWi9SM0FBQU53MGxFUVZSNG5PM2RiNHdjWlIzQThlZDVkdloyOTNiM2dHTVhVMTZBLzBnMEV2UVZsSUx2MU1TQ1N2U054S2pSMUdqNndqY2tsWlpBRUVJaERmcENFeFFoRWtPTWZXTmlRZ0JmK0U1TFMzeGhna0ZOMENDWTJIaTcvY1BkenY2YlA0K1piYSswMTcyN21iMlozZC9PZlQvSjBkTE83TXcrcy9mdHpON3NqTGJXS3VEMDRmcTJZMkFXeW9lVVUvcUVOZ3NmdmVJdjlCd00zOFlYK2p5c2N6b3kvUWFQUDR6aFdiOXo3aVZsN2ZQYlBpWlJndG9tU3FiYStIZm90bTltb0pDR1FyM3hqdks3UHc5NjNhZkdQWnhobExHWlFxMTVJdnFYbGlBaFRjRmErK2FnMTMyeXNOVDg2N2lIZFJodGpCUHRIUVdkRmpGQ1pvTFYxcTI2V0I1YXI3OXcrVExZVThKVk9GekR0Rml2WDR6Q2RQbmlpQkt1WUtyWHYweVFNRTFSbUM0L2xDTkt1RUxvbnRuUGlHRGFva081UW1YeFFVV1VjTGxvTDRrQndjdzRpOTlUUkFtWHM0UE9aeGtRekVyMFV6bEZsSEE1NncrS0RBaG1TdXNEUkFranVsZyt4RWhnMXB6YWRWL2dQQ1VrWmhhWFc4cnJQbjNGZkxuNzJJWU5CS3hFTHVoUy9iNWdyWDEzdk9kaWxva1NFdE9tOEZiZzlZOHhjb2pqNHVGWXpDanhuaElBWVlnU0FGR0lFZ0JSaUJJQVVZZ1NBRkdJRWlaZ2Q4OTFHekYxUkFtQUtFUUppWEVCWldTSktBRVF3eElsQU5JUUpRQ2lFQ1VBb2hBbEFLSVFKUUNpRUNVQW9oQWxBS0lRSlFDaUVDVUFvaEFsQUtJUUpRQ2lFQ1VBb2hBbEFLSVFKUUNpRUNVQW9oQWxBS0lRSlFDaUVDVmNvRFczY0ljSVJBbUFLRVFKZ0Nqc3NtUEVEbnRIVGExeGI1elJzSVBPN3hnMVpJVW80Wkt3MDk3SGFHRFdPSHdESUFwUkFpQ0pKa29BUkNGS0FFUWhTZ0JFSVVvQVJDRktBRVFoU2dCRXlkM0prNmNQMTZlMkxGMnNQSHp4dDhGVzAxbXZkelNEWlIrSk0xMG15eTQ0MzFLRjRwNExDN0QrcGhPR2Zzc0cvZ3M3V281eG1sZjkrWWIvdDRGMzJvYkJpNU11WnpObW9Yd296blRoc0g4czdXWHZacHpSUGFFb1NOYnJQUlpuYmwyc3BCNEg2L1dlaURPZHFUYnVEZDJVejlRdUx2N0U5bGRyMjAybXkwc2RGYXhPSEtYTmxtUEhMYWUvbW1xVUN2WG1pV0N0RlhmY2lGS0tPSHdEeHRsWVBrd05VUUlnQ2xFQ0lBcFJBaUFLVVFJZ0NsSEtPNjAzL2dRZEVJMG9BUkNGS0UxSFlUYzhTU0FOUkFtQUtFUUpnQ2hFQ1lBb1JBbUFLRVFKZ0NoRUNZQW9SQW1BS0VRSmdDaEVDWUFvUkFtQUtFUUpnQ2hjb3pzSlV6eGd5a3RmVWRwY3E1UzkwWHE5V0RQcmhlb0JYYXJ0VDNOVndrNHIxblRXSDl4cWFzMlRFeTNFMnJFWGhRM2Q5cmJYNXg3TjNsK3RtVnJqdFltV1BYcU8wMW5PdXZjdnA2QnQ2QTl1aXp0Zm9kWThjV0ZGd3ZOaDcvenhMRzVpc0p2b1RWNTNjeXVMdTVtWWF1TlU2TGJ2Mk8wdkZzU2puWktuRjhxL0NidnZmWk1oaSs0S1Uzb2dIQTZlampOdG9kNDR3ZUhiVmt6eGdIWktRNEtFSkt3L0tJYmQ5NzVoRnBkWEdMamtpTkptVFBHQUNyM25vaGVZekJXRWRHSDNiRFA2UjQwTmxReFIya3pvUFNkenhUQlBvbi9VMkdOS2hpaU5FYjJISkc2bE1MZWlQU2F6ZU0ydjJJTHhFS1V4ZUE4SmFiUEQvdjBNYWp4RWFRTmR1ZTdYb2xZSXVSQWR4bWxUK0RwYmMzdEVhUU50Q3A4V3RVTElEVk81OXF0c3plMFJwUTJzUDFnV3RVTElqOUZKdDlnT1VRSWdTdjZpNUN3K0hPM3dUUHBsQjJ2VkJFdlRmTzN1TDFNcy95RHVpeVhvdFBidDVMVTU3c3NzbEE5TjlvMGlGM3RLQUVRaFNnQkVJVXJBRHVUcjQrd3lFQ1VBb2hBbEFLSVFKUUNpRUNVQW9oQWxBS0lRSlFDaTVPL0dBWDczY1ZOdDNEUHA3RnkyQkZuUjVhV09jVXB2cFBid1dxbGdyWFVzYnhzc2wzY3pDZDMyM2tubjFhVjZKK0ZIVFlCWW9pQUZuZFpkdTIrMGRDSEoxQnkrQVZOak5XTzlQYUlFUUJTaUJFd0pIMG1KaHlnQkVJVW9BUkNGS0FFUWhTZ0JFSVVvQVpEREVpVUF3aEFsQUtJUUpRQ2lFQ1VBY21pdGlSSUFVWWdTQUZHSUVnQlJpQklBVVlnU0FGR0lFZ0JSaUJJQVVmSjNqVzVUL0s0dWxuODA2ZXhjbnh0WkNUdnRPM1Y1YVMzVmh4KzZCMjBZdkppbmpaYkhLTzBoTEpESzlsZHJhYTZhS1piMzJEREkxZmJtOEEzWUdXNEdrREtpQkVBVW9nUkFGS0lFekxFODNpR0ZLQUVRaFNnQkVJVW9BUkNGS0FFUUpYOG5UNGJlYVYycXU1UE96b21YeUpJdUwzVlNmWGl2MjhyYkJzdGpsSjYxQSsvWlNXZlhwWHFITUNFTHB0WTRHWGJhK3hqY3JYSDRCa0FVb2dSQUZLSUVRQlRuOU9GNnZQVnhxa2RtdXVKKzl5OUsyVmRudWc0QU1yZmxHOTE2c2ZtS0dxNTl4dnI5b3ZJbi9vRldLa3oxaHRkQ2Q0VW9BVGszOXZCdEZDT2xyTzIyUGo4S0VnQk15VlY3U3FiYWZDZDBXemV4QVFETXdoVjdTcEtEbE1kUFF3TzQycVVvNmVvTko5bERBakJyRjZOVStLSjFWL2F5TlFETTJpaEtwcnI4VTdZRUFBbEdVZUt3RFlBVXhqcTFoOWdhQUtRdzJsbjRPRnNEZ0JTT0xqZ2ZpZnZqZGwxWlBxT004OWFZdndxemZqNTI0TDRjYTBMdWtBdWhNcmxEcnRmOXZnMzhGL0swelJOZFQ4bDZneDhyLyt6UjdGWW5CZHdoRjRLbGZZZGNYU3czVmVEbmFwTnpsUUFBb2hBbEFLSVFKUUNpRUNWZ1J6VGZReWxqUUFGa0srR242WWtTQURsc3dpaFpwVFdiRHhCRTY5emRKbzA5SlFDaTVQQm1sUDRLZDhpRlZCbmNJZmQwbk1sMHNYeElsMnIzWlRFczd4OCs2Ykh2SHRrd3VFVjUvZGlQbDhNb0RaK3hnK0V6azg3T0hYS1JGVk50bkF6ZDJkd2hOd3BTOURFWDZSdlhoc04vY3ZnR1FBNS84Q1pSQWlCR09Pd2ZJMG9BUkREVnhqdUtuNzRCa0NKMDJ4OVVveWh4N3lJQU0xYW9OVjliWHdQMmxJQnAwWng4UEU1MDJCWjBXbmV0L3hWUkFqQXpVWkRXRDl2V0VTVUFNMkdxMTcreU1VaUtLQUdZSnUyVXZDaEcwVzlEOTh3OTR4YWR2ek82QVZ3bDdMVDM2WVhLa1V0L2J1M1VMK3h0dmY0eDZ3OVU5TFVWb2dUTXVUMVB4cjVCaXV5YmZsekU0UnNBVVJKR3lmSWpUUUNaWWs4SmdDaEVDWUFvUkFtQUtFUUpnQ2hFQ1lBb1JBbUFLRGs4ZWRKOFdTOHVINXAwYnR0dGMzMXVaTUw2ZzF0TnJYbHlvc2UyZHV4RmhtWjF6ZThzNVM5S1R2azIyMjNmSVdCTmdDdlkvbXJOS3JVM3pWSFJ4ZEZIUitiaVRPMjRPSHdESUFwUkFpQUtVUUlnQ2xFQ0lFckNLR2tpQmlCVFJBYUFLRVFKMkFuTDVYelNScFFBaUVLVUFJaVN2eWo1M1VlamQrUW4vZEtsdWl2Z1dTQ0hUSzE1YWlldnpYRmYxdXZsNm14dXhaNFNBR21JRWdCUmlCSUFVWWdTQUZHSUVnQlJpQklBVVlnU0FGR0lFZ0JSaUJJQVVZZ1NBRkdJRWdCUmlCSUFVWWdTQUZHSUVnQlJrbDZqbTZ2c0FjZ1VlMG9BUkNGS0FFUWhTZ0JFSVVvQVJIRnl1VG1jNmcrVHoyVHQ2QmQvVUVwL2hZRFJTK3hHWGF3OG5IQW9ncTMrTW8vWDZNNWZsS0lnK2U0ams4NXUwMTBiNEpMUWJkK2tsSG9zelJIUnhVcjBTNjdDeE9FYkFGSHlGeVh1V0FyTU5mYVVBSWhDbEFDSVFwUUFpRUtVQUloQ2xBQ0lRcFNBK1ZiSTIvWWpTZ0JFU1haRzl6eWM3aHgwSDFHRnhhMm4wWHJUWjZLdGQ4UUd3N2pqd2duZ3U1ejErN0VId0ZRYjc5cWgrM3lhSTJhOTN1TjUyd0w1L094YkZLWkpsZW9QcVBoUkFoTFEvODFqUk5MRzRkdEdoZEpaV1N1RTNMRGhlVGJtOW9qU1J0YitROVlLSVMvQy91cHYyWmpiSTBvYmhMM3p2eFMxUXNpUDBFdjEvYVM4SWtvYmFCVWMxNHVOLzRoYUtjdzlVMjI4emxhTWh5aU5FWGJQSFJLM1VwaGIyaWw1b2R2ZXl4YU1oeWlORWUwdHFlTFN6OFN0R09hU0RjT0RiTG40aU5KbXZOV0RoQWs3Wm9yZjRiMmtaSWpTVnJ6VmcxWVY3dWM5SmlSMThUMGtUWkNTNHlUQmJVU0hjcmJiUG01VjRhdW1jdTIzbGRZZlU4RmdPYnJCUU53enYzVmh3VmRPYVpEbWV0bkJXalgyY3lqVjNYbGM5cnc5UisyVXp0b3crS1B0bmZ0YTZMYlRYSjFkaFNqRk5JcFQ3OHp4UzFPUDdwZ3lqSFhtdU5YT0UycXc5bWpLcXhUckl5NTZzZkc2N2FiN0pxc3UxVHR4dm1tamIxWTdXS3RKWDg0NHB0bzRGYnJ0TytKTXU3NXNPMWhMY3hWMkxRN2ZBSWhDbEtaQ2N6TURJS2FrVWNyZHRWc0F5TUtlRWdCUmlCSUFVWWdTQUZHSTBxUzRFeStRQ2FJRVFCU2lCRUFVb2dSQUZLSUVRQlNpQkVBVW9nUkFGS0lFUUJTaUJFQVVvZ1JBRktJRVFCU2lOQTE4SkFXSWpTaE55Q3JOMkFFWjRCcmRrd29HYityRjVwL2p6QjEyei80dDdWMmx1TXUyUS9mM0tTODZ1a0wrUzNxeDhhRnRwd3VEdCtkaU9lTWVjdEI5MlZRYjhhYmxKZ0dwMHFjZisvQkoyMTJKZFdGNVc2Zy9yb08xV0JmTEI1TGE4eVFYM2dlSGJ3Q0VJVW9BUkRIS0VpWUFjaEFrQUtJUUpRQ2lFQ1VBb2lTS2t1Vk9yd0F5eHA0U0FGRTRveHNaTXZ1VlUvbFVyTWYzM2FOc0NTaWloQ3pwYXVNaDY2N3NpN1VJcHhyOWx6Q0J3emNBc2hBbEFLSVFKUUNpRUNVQW9oQWxBS0lRSlFDaUVDVUFvaEFsQUtJUUpRQ2lFQ1VBb2hBbEFLSVFKUUNpRUNVQW9oanJyZjZQVFFKQUN2YVVBSWhpbEZPOWprMENRQXIybEFDSVFwUUFpRUtVQUloQ2xKQWxYbDlJakJjTkFGR0lFZ0JSaUJJQVVZZ1NBRkVTM1l5eXNGRCtYRENjN3VwclplMFVGaE5NTkpmZTZXTFRmbTQyVEQ2UDN0RTZiTGw5UXYrV25UdzJkaWRIV2Z0ZTNHZHVleXUzRzZWdTU3V0NPS3p2TWs1SXpGaXY5eWVHRFRQbnU5eXlHeU5HaDcybkdBck1rbmJLSGhzQTYwWnZkT3ZLOHR1TUNHWm1vZjRIQmgvclJsRUtCNzFmTUNLWUZkdHQ3V2Z3c2U3Q25sTFllMHBYcm4rRFVjRzA2Y1htcXd3NkxuZnBQQ1hiTy9OSlhWamcyQjVUWTZyTmQ5bEx3a1pYbkR4cGcrRUNZY0kwUkVFSzNkYk5ERFkydXVxTTdsR1lPSlJEaG5UMWhsTUVDWnNaK3pHVDZGRE9tc3BoZmlxSE5FVjdSMG9Wdm1UZGxUc1pXR3htMDQrWlJHOSsyOTZGYzVpc3FUeW9pNVc3bGRiWHhCcEozejAzZW96aTBnZFNIM210SnZnb0JYWXczanRpQS85ZjFoLytYZnVkSjBLM3hYYkExcFJTL3dlTlpNbmVFZmVBOUFBQUFBQkpSVTVFcmtKZ2dnPT0iIGhlaWdodD0iMjkzIiB3aWR0aD0iMjkzIiB5PSI2NiIgeD0iNjYiLz4mI3hhOzwvc3ZnPg==;" vertex="1" parent="1">
          <mxGeometry x="300" y="155" width="75" height="75" as="geometry" />
        </mxCell>
        <mxCell id="-O9r-9XehU72l_ou3Ttp-14" value="&lt;div&gt;&lt;font size=&quot;1&quot; color=&quot;#ff9900&quot;&gt;&lt;b&gt;Web Server&lt;/b&gt;&lt;/font&gt;&lt;/div&gt;&lt;div&gt;&lt;font size=&quot;1&quot; color=&quot;#ff9900&quot;&gt;&lt;b&gt;172.0.1.10&lt;br&gt;&lt;/b&gt;&lt;/font&gt;&lt;/div&gt;" style="text;html=1;strokeColor=none;fillColor=none;align=center;verticalAlign=middle;whiteSpace=wrap;rounded=0;" vertex="1" parent="1">
          <mxGeometry x="300" y="210" width="70" height="50" as="geometry" />
        </mxCell>
        <mxCell id="-O9r-9XehU72l_ou3Ttp-15" value="" style="shape=image;verticalLabelPosition=bottom;labelBackgroundColor=default;verticalAlign=top;aspect=fixed;imageAspect=0;image=data:image/svg+xml,PHN2ZyB2aWV3Qm94PSIwIDAgNDI1IDQyNSIgaGVpZ2h0PSI0MjUiIHdpZHRoPSI0MjUiIHhtbG5zOnhsaW5rPSJodHRwOi8vd3d3LnczLm9yZy8xOTk5L3hsaW5rIiB4bWxucz0iaHR0cDovL3d3dy53My5vcmcvMjAwMC9zdmciPiYjeGE7ICA8aW1hZ2UgeGxpbms6aHJlZj0iZGF0YTppbWcvcG5nO2Jhc2U2NCxpVkJPUncwS0dnb0FBQUFOU1VoRVVnQUFBU1VBQUFFbENBWUFBQUNpWi9SM0FBQU53MGxFUVZSNG5PM2RiNHdjWlIzQThlZDVkdloyOTNiM2dHTVhVMTZBLzBnMEV2UVZsSUx2MU1TQ1N2U054S2pSMUdqNndqY2tsWlpBRUVJaERmcENFeFFoRWtPTWZXTmlRZ0JmK0U1TFMzeGhna0ZOMENDWTJIaTcvY1BkenY2YlA0K1piYSswMTcyN21iMlozZC9PZlQvSjBkTE83TXcrcy9mdHpON3NqTGJXS3VEMDRmcTJZMkFXeW9lVVUvcUVOZ3NmdmVJdjlCd00zOFlYK2p5c2N6b3kvUWFQUDR6aFdiOXo3aVZsN2ZQYlBpWlJndG9tU3FiYStIZm90bTltb0pDR1FyM3hqdks3UHc5NjNhZkdQWnhobExHWlFxMTVJdnFYbGlBaFRjRmErK2FnMTMyeXNOVDg2N2lIZFJodGpCUHRIUVdkRmpGQ1pvTFYxcTI2V0I1YXI3OXcrVExZVThKVk9GekR0Rml2WDR6Q2RQbmlpQkt1WUtyWHYweVFNRTFSbUM0L2xDTkt1RUxvbnRuUGlHRGFva081UW1YeFFVV1VjTGxvTDRrQndjdzRpOTlUUkFtWHM0UE9aeGtRekVyMFV6bEZsSEE1NncrS0RBaG1TdXNEUkFranVsZyt4RWhnMXB6YWRWL2dQQ1VrWmhhWFc4cnJQbjNGZkxuNzJJWU5CS3hFTHVoUy9iNWdyWDEzdk9kaWxva1NFdE9tOEZiZzlZOHhjb2pqNHVGWXpDanhuaElBWVlnU0FGR0lFZ0JSaUJJQVVZZ1NBRkdJRWlaZ2Q4OTFHekYxUkFtQUtFUUppWEVCWldTSktBRVF3eElsQU5JUUpRQ2lFQ1VBb2hBbEFLSVFKUUNpRUNVQW9oQWxBS0lRSlFDaUVDVUFvaEFsQUtJUUpRQ2lFQ1VBb2hBbEFLSVFKUUNpRUNVQW9oQWxBS0lRSlFDaUVDVmNvRFczY0ljSVJBbUFLRVFKZ0Nqc3NtUEVEbnRIVGExeGI1elJzSVBPN3hnMVpJVW80Wkt3MDk3SGFHRFdPSHdESUFwUkFpQ0pKa29BUkNGS0FFUWhTZ0JFSVVvQVJDRktBRVFoU2dCRXlkM0prNmNQMTZlMkxGMnNQSHp4dDhGVzAxbXZkelNEWlIrSk0xMG15eTQ0MzFLRjRwNExDN0QrcGhPR2Zzc0cvZ3M3V281eG1sZjkrWWIvdDRGMzJvYkJpNU11WnpObW9Yd296blRoc0g4czdXWHZacHpSUGFFb1NOYnJQUlpuYmwyc3BCNEg2L1dlaURPZHFUYnVEZDJVejlRdUx2N0U5bGRyMjAybXkwc2RGYXhPSEtYTmxtUEhMYWUvbW1xVUN2WG1pV0N0RlhmY2lGS0tPSHdEeHRsWVBrd05VUUlnQ2xFQ0lBcFJBaUFLVVFJZ0NsSEtPNjAzL2dRZEVJMG9BUkNGS0UxSFlUYzhTU0FOUkFtQUtFUUpnQ2hFQ1lBb1JBbUFLRVFKZ0NoRUNZQW9SQW1BS0VRSmdDaEVDWUFvUkFtQUtFUUpnQ2hjb3pzSlV6eGd5a3RmVWRwY3E1UzkwWHE5V0RQcmhlb0JYYXJ0VDNOVndrNHIxblRXSDl4cWFzMlRFeTNFMnJFWGhRM2Q5cmJYNXg3TjNsK3RtVnJqdFltV1BYcU8wMW5PdXZjdnA2QnQ2QTl1aXp0Zm9kWThjV0ZGd3ZOaDcvenhMRzVpc0p2b1RWNTNjeXVMdTVtWWF1TlU2TGJ2Mk8wdkZzU2puWktuRjhxL0NidnZmWk1oaSs0S1Uzb2dIQTZlampOdG9kNDR3ZUhiVmt6eGdIWktRNEtFSkt3L0tJYmQ5NzVoRnBkWEdMamtpTkptVFBHQUNyM25vaGVZekJXRWRHSDNiRFA2UjQwTmxReFIya3pvUFNkenhUQlBvbi9VMkdOS2hpaU5FYjJISkc2bE1MZWlQU2F6ZU0ydjJJTHhFS1V4ZUE4SmFiUEQvdjBNYWp4RWFRTmR1ZTdYb2xZSXVSQWR4bWxUK0RwYmMzdEVhUU50Q3A4V3RVTElEVk81OXF0c3plMFJwUTJzUDFnV3RVTElqOUZKdDlnT1VRSWdTdjZpNUN3K0hPM3dUUHBsQjJ2VkJFdlRmTzN1TDFNcy95RHVpeVhvdFBidDVMVTU3c3NzbEE5TjlvMGlGM3RLQUVRaFNnQkVJVXJBRHVUcjQrd3lFQ1VBb2hBbEFLSVFKUUNpRUNVQW9oQWxBS0lRSlFDaTVPL0dBWDczY1ZOdDNEUHA3RnkyQkZuUjVhV09jVXB2cFBid1dxbGdyWFVzYnhzc2wzY3pDZDMyM2tubjFhVjZKK0ZIVFlCWW9pQUZuZFpkdTIrMGRDSEoxQnkrQVZOak5XTzlQYUlFUUJTaUJFd0pIMG1KaHlnQkVJVW9BUkNGS0FFUWhTZ0JFSVVvQVpEREVpVUF3aEFsQUtJUUpRQ2lFQ1VBY21pdGlSSUFVWWdTQUZHSUVnQlJpQklBVVlnU0FGR0lFZ0JSaUJJQVVmSjNqVzVUL0s0dWxuODA2ZXhjbnh0WkNUdnRPM1Y1YVMzVmh4KzZCMjBZdkppbmpaYkhLTzBoTEpESzlsZHJhYTZhS1piMzJEREkxZmJtOEEzWUdXNEdrREtpQkVBVW9nUkFGS0lFekxFODNpR0ZLQUVRaFNnQkVJVW9BUkNGS0FFUUpYOG5UNGJlYVYycXU1UE96b21YeUpJdUwzVlNmWGl2MjhyYkJzdGpsSjYxQSsvWlNXZlhwWHFITUNFTHB0WTRHWGJhK3hqY3JYSDRCa0FVb2dSQUZLSUVRQlRuOU9GNnZQVnhxa2RtdXVKKzl5OUsyVmRudWc0QU1yZmxHOTE2c2ZtS0dxNTl4dnI5b3ZJbi9vRldLa3oxaHRkQ2Q0VW9BVGszOXZCdEZDT2xyTzIyUGo4S0VnQk15VlY3U3FiYWZDZDBXemV4QVFETXdoVjdTcEtEbE1kUFF3TzQycVVvNmVvTko5bERBakJyRjZOVStLSjFWL2F5TlFETTJpaEtwcnI4VTdZRUFBbEdVZUt3RFlBVXhqcTFoOWdhQUtRdzJsbjRPRnNEZ0JTT0xqZ2ZpZnZqZGwxWlBxT004OWFZdndxemZqNTI0TDRjYTBMdWtBdWhNcmxEcnRmOXZnMzhGL0swelJOZFQ4bDZneDhyLyt6UjdGWW5CZHdoRjRLbGZZZGNYU3czVmVEbmFwTnpsUUFBb2hBbEFLSVFKUUNpRUNWZ1J6VGZReWxqUUFGa0srR242WWtTQURsc3dpaFpwVFdiRHhCRTY5emRKbzA5SlFDaTVQQm1sUDRLZDhpRlZCbmNJZmQwbk1sMHNYeElsMnIzWlRFczd4OCs2Ykh2SHRrd3VFVjUvZGlQbDhNb0RaK3hnK0V6azg3T0hYS1JGVk50bkF6ZDJkd2hOd3BTOURFWDZSdlhoc04vY3ZnR1FBNS84Q1pSQWlCR09Pd2ZJMG9BUkREVnhqdUtuNzRCa0NKMDJ4OVVveWh4N3lJQU0xYW9OVjliWHdQMmxJQnAwWng4UEU1MDJCWjBXbmV0L3hWUkFqQXpVWkRXRDl2V0VTVUFNMkdxMTcreU1VaUtLQUdZSnUyVXZDaEcwVzlEOTh3OTR4YWR2ek82QVZ3bDdMVDM2WVhLa1V0L2J1M1VMK3h0dmY0eDZ3OVU5TFVWb2dUTXVUMVB4cjVCaXV5YmZsekU0UnNBVVJKR3lmSWpUUUNaWWs4SmdDaEVDWUFvUkFtQUtFUUpnQ2hFQ1lBb1JBbUFLRGs4ZWRKOFdTOHVINXAwYnR0dGMzMXVaTUw2ZzF0TnJYbHlvc2UyZHV4RmhtWjF6ZThzNVM5S1R2azIyMjNmSVdCTmdDdlkvbXJOS3JVM3pWSFJ4ZEZIUitiaVRPMjRPSHdESUFwUkFpQUtVUUlnQ2xFQ0lFckNLR2tpQmlCVFJBYUFLRVFKMkFuTDVYelNScFFBaUVLVUFJaVN2eWo1M1VlamQrUW4vZEtsdWl2Z1dTQ0hUSzE1YWlldnpYRmYxdXZsNm14dXhaNFNBR21JRWdCUmlCSUFVWWdTQUZHSUVnQlJpQklBVVlnU0FGR0lFZ0JSaUJJQVVZZ1NBRkdJRWdCUmlCSUFVWWdTQUZHSUVnQlJrbDZqbTZ2c0FjZ1VlMG9BUkNGS0FFUWhTZ0JFSVVvQVJIRnl1VG1jNmcrVHoyVHQ2QmQvVUVwL2hZRFJTK3hHWGF3OG5IQW9ncTMrTW8vWDZNNWZsS0lnK2U0ams4NXUwMTBiNEpMUWJkK2tsSG9zelJIUnhVcjBTNjdDeE9FYkFGSHlGeVh1V0FyTU5mYVVBSWhDbEFDSVFwUUFpRUtVQUloQ2xBQ0lRcFNBK1ZiSTIvWWpTZ0JFU1haRzl6eWM3aHgwSDFHRnhhMm4wWHJUWjZLdGQ4UUd3N2pqd2duZ3U1ejErN0VId0ZRYjc5cWgrM3lhSTJhOTN1TjUyd0w1L094YkZLWkpsZW9QcVBoUkFoTFEvODFqUk5MRzRkdEdoZEpaV1N1RTNMRGhlVGJtOW9qU1J0YitROVlLSVMvQy91cHYyWmpiSTBvYmhMM3p2eFMxUXNpUDBFdjEvYVM4SWtvYmFCVWMxNHVOLzRoYUtjdzlVMjI4emxhTWh5aU5FWGJQSFJLM1VwaGIyaWw1b2R2ZXl4YU1oeWlORWUwdHFlTFN6OFN0R09hU0RjT0RiTG40aU5KbXZOV0RoQWs3Wm9yZjRiMmtaSWpTVnJ6VmcxWVY3dWM5SmlSMThUMGtUWkNTNHlUQmJVU0hjcmJiUG01VjRhdW1jdTIzbGRZZlU4RmdPYnJCUU53enYzVmh3VmRPYVpEbWV0bkJXalgyY3lqVjNYbGM5cnc5UisyVXp0b3crS1B0bmZ0YTZMYlRYSjFkaFNqRk5JcFQ3OHp4UzFPUDdwZ3lqSFhtdU5YT0UycXc5bWpLcXhUckl5NTZzZkc2N2FiN0pxc3UxVHR4dm1tamIxWTdXS3RKWDg0NHB0bzRGYnJ0TytKTXU3NXNPMWhMY3hWMkxRN2ZBSWhDbEtaQ2N6TURJS2FrVWNyZHRWc0F5TUtlRWdCUmlCSUFVWWdTQUZHSTBxUzRFeStRQ2FJRVFCU2lCRUFVb2dSQUZLSUVRQlNpQkVBVW9nUkFGS0lFUUJTaUJFQVVvZ1JBRktJRVFCU2lOQTE4SkFXSWpTaE55Q3JOMkFFWjRCcmRrd29HYityRjVwL2p6QjEyei80dDdWMmx1TXUyUS9mM0tTODZ1a0wrUzNxeDhhRnRwd3VEdCtkaU9lTWVjdEI5MlZRYjhhYmxKZ0dwMHFjZisvQkoyMTJKZFdGNVc2Zy9yb08xV0JmTEI1TGE4eVFYM2dlSGJ3Q0VJVW9BUkRIS0VpWUFjaEFrQUtJUUpRQ2lFQ1VBb2lTS2t1Vk9yd0F5eHA0U0FGRTRveHNaTXZ1VlUvbFVyTWYzM2FOc0NTaWloQ3pwYXVNaDY2N3NpN1VJcHhyOWx6Q0J3emNBc2hBbEFLSVFKUUNpRUNVQW9oQWxBS0lRSlFDaUVDVUFvaEFsQUtJUUpRQ2lFQ1VBb2hBbEFLSVFKUUNpRUNVQW9oanJyZjZQVFFKQUN2YVVBSWhpbEZPOWprMENRQXIybEFDSVFwUUFpRUtVQUloQ2xKQWxYbDlJakJjTkFGR0lFZ0JSaUJJQVVZZ1NBRkVTM1l5eXNGRCtYRENjN3VwclplMFVGaE5NTkpmZTZXTFRmbTQyVEQ2UDN0RTZiTGw5UXYrV25UdzJkaWRIV2Z0ZTNHZHVleXUzRzZWdTU3V0NPS3p2TWs1SXpGaXY5eWVHRFRQbnU5eXlHeU5HaDcybkdBck1rbmJLSGhzQTYwWnZkT3ZLOHR1TUNHWm1vZjRIQmgvclJsRUtCNzFmTUNLWUZkdHQ3V2Z3c2U3Q25sTFllMHBYcm4rRFVjRzA2Y1htcXd3NkxuZnBQQ1hiTy9OSlhWamcyQjVUWTZyTmQ5bEx3a1pYbkR4cGcrRUNZY0kwUkVFSzNkYk5ERFkydXVxTTdsR1lPSlJEaG5UMWhsTUVDWnNaK3pHVDZGRE9tc3BoZmlxSE5FVjdSMG9Wdm1UZGxUc1pXR3htMDQrWlJHOSsyOTZGYzVpc3FUeW9pNVc3bGRiWHhCcEozejAzZW96aTBnZFNIM210SnZnb0JYWXczanRpQS85ZjFoLytYZnVkSjBLM3hYYkExcFJTL3dlTlpNbmVFZmVBOUFBQUFBQkpSVTVFcmtKZ2dnPT0iIGhlaWdodD0iMjkzIiB3aWR0aD0iMjkzIiB5PSI2NiIgeD0iNjYiLz4mI3hhOzwvc3ZnPg==;" vertex="1" parent="1">
          <mxGeometry x="312.5" y="350" width="75" height="75" as="geometry" />
        </mxCell>
        <mxCell id="-O9r-9XehU72l_ou3Ttp-16" value="&lt;div&gt;&lt;font size=&quot;1&quot; color=&quot;#ff9900&quot;&gt;&lt;b&gt;Banco de Dados&lt;/b&gt;&lt;/font&gt;&lt;/div&gt;&lt;font size=&quot;1&quot; color=&quot;#ff9900&quot;&gt;&lt;b&gt;172.0.2.10&lt;/b&gt;&lt;/font&gt;" style="text;html=1;strokeColor=none;fillColor=none;align=center;verticalAlign=middle;whiteSpace=wrap;rounded=0;" vertex="1" parent="1">
          <mxGeometry x="310" y="427.5" width="70" height="17.5" as="geometry" />
        </mxCell>
        <mxCell id="-O9r-9XehU72l_ou3Ttp-18" value="" style="shape=image;verticalLabelPosition=bottom;labelBackgroundColor=default;verticalAlign=top;aspect=fixed;imageAspect=0;image=data:image/svg+xml,PHN2ZyB2aWV3Qm94PSIwIDAgNDI1IDQyNSIgaGVpZ2h0PSI0MjUiIHdpZHRoPSI0MjUiIHhtbG5zOnhsaW5rPSJodHRwOi8vd3d3LnczLm9yZy8xOTk5L3hsaW5rIiB4bWxucz0iaHR0cDovL3d3dy53My5vcmcvMjAwMC9zdmciPiYjeGE7ICA8aW1hZ2UgeGxpbms6aHJlZj0iZGF0YTppbWcvcG5nO2Jhc2U2NCxpVkJPUncwS0dnb0FBQUFOU1VoRVVnQUFBU1VBQUFFbENBWUFBQUNpWi9SM0FBQU53MGxFUVZSNG5PM2RiNHdjWlIzQThlZDVkdloyOTNiM2dHTVhVMTZBLzBnMEV2UVZsSUx2MU1TQ1N2U054S2pSMUdqNndqY2tsWlpBRUVJaERmcENFeFFoRWtPTWZXTmlRZ0JmK0U1TFMzeGhna0ZOMENDWTJIaTcvY1BkenY2YlA0K1piYSswMTcyN21iMlozZC9PZlQvSjBkTE83TXcrcy9mdHpON3NqTGJXS3VEMDRmcTJZMkFXeW9lVVUvcUVOZ3NmdmVJdjlCd00zOFlYK2p5c2N6b3kvUWFQUDR6aFdiOXo3aVZsN2ZQYlBpWlJndG9tU3FiYStIZm90bTltb0pDR1FyM3hqdks3UHc5NjNhZkdQWnhobExHWlFxMTVJdnFYbGlBaFRjRmErK2FnMTMyeXNOVDg2N2lIZFJodGpCUHRIUVdkRmpGQ1pvTFYxcTI2V0I1YXI3OXcrVExZVThKVk9GekR0Rml2WDR6Q2RQbmlpQkt1WUtyWHYweVFNRTFSbUM0L2xDTkt1RUxvbnRuUGlHRGFva081UW1YeFFVV1VjTGxvTDRrQndjdzRpOTlUUkFtWHM0UE9aeGtRekVyMFV6bEZsSEE1NncrS0RBaG1TdXNEUkFranVsZyt4RWhnMXB6YWRWL2dQQ1VrWmhhWFc4cnJQbjNGZkxuNzJJWU5CS3hFTHVoUy9iNWdyWDEzdk9kaWxva1NFdE9tOEZiZzlZOHhjb2pqNHVGWXpDanhuaElBWVlnU0FGR0lFZ0JSaUJJQVVZZ1NBRkdJRWlaZ2Q4OTFHekYxUkFtQUtFUUppWEVCWldTSktBRVF3eElsQU5JUUpRQ2lFQ1VBb2hBbEFLSVFKUUNpRUNVQW9oQWxBS0lRSlFDaUVDVUFvaEFsQUtJUUpRQ2lFQ1VBb2hBbEFLSVFKUUNpRUNVQW9oQWxBS0lRSlFDaUVDVmNvRFczY0ljSVJBbUFLRVFKZ0Nqc3NtUEVEbnRIVGExeGI1elJzSVBPN3hnMVpJVW80Wkt3MDk3SGFHRFdPSHdESUFwUkFpQ0pKa29BUkNGS0FFUWhTZ0JFSVVvQVJDRktBRVFoU2dCRXlkM0prNmNQMTZlMkxGMnNQSHp4dDhGVzAxbXZkelNEWlIrSk0xMG15eTQ0MzFLRjRwNExDN0QrcGhPR2Zzc0cvZ3M3V281eG1sZjkrWWIvdDRGMzJvYkJpNU11WnpObW9Yd296blRoc0g4czdXWHZacHpSUGFFb1NOYnJQUlpuYmwyc3BCNEg2L1dlaURPZHFUYnVEZDJVejlRdUx2N0U5bGRyMjAybXkwc2RGYXhPSEtYTmxtUEhMYWUvbW1xVUN2WG1pV0N0RlhmY2lGS0tPSHdEeHRsWVBrd05VUUlnQ2xFQ0lBcFJBaUFLVVFJZ0NsSEtPNjAzL2dRZEVJMG9BUkNGS0UxSFlUYzhTU0FOUkFtQUtFUUpnQ2hFQ1lBb1JBbUFLRVFKZ0NoRUNZQW9SQW1BS0VRSmdDaEVDWUFvUkFtQUtFUUpnQ2hjb3pzSlV6eGd5a3RmVWRwY3E1UzkwWHE5V0RQcmhlb0JYYXJ0VDNOVndrNHIxblRXSDl4cWFzMlRFeTNFMnJFWGhRM2Q5cmJYNXg3TjNsK3RtVnJqdFltV1BYcU8wMW5PdXZjdnA2QnQ2QTl1aXp0Zm9kWThjV0ZGd3ZOaDcvenhMRzVpc0p2b1RWNTNjeXVMdTVtWWF1TlU2TGJ2Mk8wdkZzU2puWktuRjhxL0NidnZmWk1oaSs0S1Uzb2dIQTZlampOdG9kNDR3ZUhiVmt6eGdIWktRNEtFSkt3L0tJYmQ5NzVoRnBkWEdMamtpTkptVFBHQUNyM25vaGVZekJXRWRHSDNiRFA2UjQwTmxReFIya3pvUFNkenhUQlBvbi9VMkdOS2hpaU5FYjJISkc2bE1MZWlQU2F6ZU0ydjJJTHhFS1V4ZUE4SmFiUEQvdjBNYWp4RWFRTmR1ZTdYb2xZSXVSQWR4bWxUK0RwYmMzdEVhUU50Q3A4V3RVTElEVk81OXF0c3plMFJwUTJzUDFnV3RVTElqOUZKdDlnT1VRSWdTdjZpNUN3K0hPM3dUUHBsQjJ2VkJFdlRmTzN1TDFNcy95RHVpeVhvdFBidDVMVTU3c3NzbEE5TjlvMGlGM3RLQUVRaFNnQkVJVXJBRHVUcjQrd3lFQ1VBb2hBbEFLSVFKUUNpRUNVQW9oQWxBS0lRSlFDaTVPL0dBWDczY1ZOdDNEUHA3RnkyQkZuUjVhV09jVXB2cFBid1dxbGdyWFVzYnhzc2wzY3pDZDMyM2tubjFhVjZKK0ZIVFlCWW9pQUZuZFpkdTIrMGRDSEoxQnkrQVZOak5XTzlQYUlFUUJTaUJFd0pIMG1KaHlnQkVJVW9BUkNGS0FFUWhTZ0JFSVVvQVpEREVpVUF3aEFsQUtJUUpRQ2lFQ1VBY21pdGlSSUFVWWdTQUZHSUVnQlJpQklBVVlnU0FGR0lFZ0JSaUJJQVVmSjNqVzVUL0s0dWxuODA2ZXhjbnh0WkNUdnRPM1Y1YVMzVmh4KzZCMjBZdkppbmpaYkhLTzBoTEpESzlsZHJhYTZhS1piMzJEREkxZmJtOEEzWUdXNEdrREtpQkVBVW9nUkFGS0lFekxFODNpR0ZLQUVRaFNnQkVJVW9BUkNGS0FFUUpYOG5UNGJlYVYycXU1UE96b21YeUpJdUwzVlNmWGl2MjhyYkJzdGpsSjYxQSsvWlNXZlhwWHFITUNFTHB0WTRHWGJhK3hqY3JYSDRCa0FVb2dSQUZLSUVRQlRuOU9GNnZQVnhxa2RtdXVKKzl5OUsyVmRudWc0QU1yZmxHOTE2c2ZtS0dxNTl4dnI5b3ZJbi9vRldLa3oxaHRkQ2Q0VW9BVGszOXZCdEZDT2xyTzIyUGo4S0VnQk15VlY3U3FiYWZDZDBXemV4QVFETXdoVjdTcEtEbE1kUFF3TzQycVVvNmVvTko5bERBakJyRjZOVStLSjFWL2F5TlFETTJpaEtwcnI4VTdZRUFBbEdVZUt3RFlBVXhqcTFoOWdhQUtRdzJsbjRPRnNEZ0JTT0xqZ2ZpZnZqZGwxWlBxT004OWFZdndxemZqNTI0TDRjYTBMdWtBdWhNcmxEcnRmOXZnMzhGL0swelJOZFQ4bDZneDhyLyt6UjdGWW5CZHdoRjRLbGZZZGNYU3czVmVEbmFwTnpsUUFBb2hBbEFLSVFKUUNpRUNWZ1J6VGZReWxqUUFGa0srR242WWtTQURsc3dpaFpwVFdiRHhCRTY5emRKbzA5SlFDaTVQQm1sUDRLZDhpRlZCbmNJZmQwbk1sMHNYeElsMnIzWlRFczd4OCs2Ykh2SHRrd3VFVjUvZGlQbDhNb0RaK3hnK0V6azg3T0hYS1JGVk50bkF6ZDJkd2hOd3BTOURFWDZSdlhoc04vY3ZnR1FBNS84Q1pSQWlCR09Pd2ZJMG9BUkREVnhqdUtuNzRCa0NKMDJ4OVVveWh4N3lJQU0xYW9OVjliWHdQMmxJQnAwWng4UEU1MDJCWjBXbmV0L3hWUkFqQXpVWkRXRDl2V0VTVUFNMkdxMTcreU1VaUtLQUdZSnUyVXZDaEcwVzlEOTh3OTR4YWR2ek82QVZ3bDdMVDM2WVhLa1V0L2J1M1VMK3h0dmY0eDZ3OVU5TFVWb2dUTXVUMVB4cjVCaXV5YmZsekU0UnNBVVJKR3lmSWpUUUNaWWs4SmdDaEVDWUFvUkFtQUtFUUpnQ2hFQ1lBb1JBbUFLRGs4ZWRKOFdTOHVINXAwYnR0dGMzMXVaTUw2ZzF0TnJYbHlvc2UyZHV4RmhtWjF6ZThzNVM5S1R2azIyMjNmSVdCTmdDdlkvbXJOS3JVM3pWSFJ4ZEZIUitiaVRPMjRPSHdESUFwUkFpQUtVUUlnQ2xFQ0lFckNLR2tpQmlCVFJBYUFLRVFKMkFuTDVYelNScFFBaUVLVUFJaVN2eWo1M1VlamQrUW4vZEtsdWl2Z1dTQ0hUSzE1YWlldnpYRmYxdXZsNm14dXhaNFNBR21JRWdCUmlCSUFVWWdTQUZHSUVnQlJpQklBVVlnU0FGR0lFZ0JSaUJJQVVZZ1NBRkdJRWdCUmlCSUFVWWdTQUZHSUVnQlJrbDZqbTZ2c0FjZ1VlMG9BUkNGS0FFUWhTZ0JFSVVvQVJIRnl1VG1jNmcrVHoyVHQ2QmQvVUVwL2hZRFJTK3hHWGF3OG5IQW9ncTMrTW8vWDZNNWZsS0lnK2U0ams4NXUwMTBiNEpMUWJkK2tsSG9zelJIUnhVcjBTNjdDeE9FYkFGSHlGeVh1V0FyTU5mYVVBSWhDbEFDSVFwUUFpRUtVQUloQ2xBQ0lRcFNBK1ZiSTIvWWpTZ0JFU1haRzl6eWM3aHgwSDFHRnhhMm4wWHJUWjZLdGQ4UUd3N2pqd2duZ3U1ejErN0VId0ZRYjc5cWgrM3lhSTJhOTN1TjUyd0w1L094YkZLWkpsZW9QcVBoUkFoTFEvODFqUk5MRzRkdEdoZEpaV1N1RTNMRGhlVGJtOW9qU1J0YitROVlLSVMvQy91cHYyWmpiSTBvYmhMM3p2eFMxUXNpUDBFdjEvYVM4SWtvYmFCVWMxNHVOLzRoYUtjdzlVMjI4emxhTWh5aU5FWGJQSFJLM1VwaGIyaWw1b2R2ZXl4YU1oeWlORWUwdHFlTFN6OFN0R09hU0RjT0RiTG40aU5KbXZOV0RoQWs3Wm9yZjRiMmtaSWpTVnJ6VmcxWVY3dWM5SmlSMThUMGtUWkNTNHlUQmJVU0hjcmJiUG01VjRhdW1jdTIzbGRZZlU4RmdPYnJCUU53enYzVmh3VmRPYVpEbWV0bkJXalgyY3lqVjNYbGM5cnc5UisyVXp0b3crS1B0bmZ0YTZMYlRYSjFkaFNqRk5JcFQ3OHp4UzFPUDdwZ3lqSFhtdU5YT0UycXc5bWpLcXhUckl5NTZzZkc2N2FiN0pxc3UxVHR4dm1tamIxWTdXS3RKWDg0NHB0bzRGYnJ0TytKTXU3NXNPMWhMY3hWMkxRN2ZBSWhDbEtaQ2N6TURJS2FrVWNyZHRWc0F5TUtlRWdCUmlCSUFVWWdTQUZHSTBxUzRFeStRQ2FJRVFCU2lCRUFVb2dSQUZLSUVRQlNpQkVBVW9nUkFGS0lFUUJTaUJFQVVvZ1JBRktJRVFCU2lOQTE4SkFXSWpTaE55Q3JOMkFFWjRCcmRrd29HYityRjVwL2p6QjEyei80dDdWMmx1TXUyUS9mM0tTODZ1a0wrUzNxeDhhRnRwd3VEdCtkaU9lTWVjdEI5MlZRYjhhYmxKZ0dwMHFjZisvQkoyMTJKZFdGNVc2Zy9yb08xV0JmTEI1TGE4eVFYM2dlSGJ3Q0VJVW9BUkRIS0VpWUFjaEFrQUtJUUpRQ2lFQ1VBb2lTS2t1Vk9yd0F5eHA0U0FGRTRveHNaTXZ1VlUvbFVyTWYzM2FOc0NTaWloQ3pwYXVNaDY2N3NpN1VJcHhyOWx6Q0J3emNBc2hBbEFLSVFKUUNpRUNVQW9oQWxBS0lRSlFDaUVDVUFvaEFsQUtJUUpRQ2lFQ1VBb2hBbEFLSVFKUUNpRUNVQW9oanJyZjZQVFFKQUN2YVVBSWhpbEZPOWprMENRQXIybEFDSVFwUUFpRUtVQUloQ2xKQWxYbDlJakJjTkFGR0lFZ0JSaUJJQVVZZ1NBRkVTM1l5eXNGRCtYRENjN3VwclplMFVGaE5NTkpmZTZXTFRmbTQyVEQ2UDN0RTZiTGw5UXYrV25UdzJkaWRIV2Z0ZTNHZHVleXUzRzZWdTU3V0NPS3p2TWs1SXpGaXY5eWVHRFRQbnU5eXlHeU5HaDcybkdBck1rbmJLSGhzQTYwWnZkT3ZLOHR1TUNHWm1vZjRIQmgvclJsRUtCNzFmTUNLWUZkdHQ3V2Z3c2U3Q25sTFllMHBYcm4rRFVjRzA2Y1htcXd3NkxuZnBQQ1hiTy9OSlhWamcyQjVUWTZyTmQ5bEx3a1pYbkR4cGcrRUNZY0kwUkVFSzNkYk5ERFkydXVxTTdsR1lPSlJEaG5UMWhsTUVDWnNaK3pHVDZGRE9tc3BoZmlxSE5FVjdSMG9Wdm1UZGxUc1pXR3htMDQrWlJHOSsyOTZGYzVpc3FUeW9pNVc3bGRiWHhCcEozejAzZW96aTBnZFNIM210SnZnb0JYWXczanRpQS85ZjFoLytYZnVkSjBLM3hYYkExcFJTL3dlTlpNbmVFZmVBOUFBQUFBQkpSVTVFcmtKZ2dnPT0iIGhlaWdodD0iMjkzIiB3aWR0aD0iMjkzIiB5PSI2NiIgeD0iNjYiLz4mI3hhOzwvc3ZnPg==;" vertex="1" parent="1">
          <mxGeometry x="525" y="390" width="75" height="75" as="geometry" />
        </mxCell>
        <mxCell id="-O9r-9XehU72l_ou3Ttp-19" value="&lt;div&gt;&lt;font size=&quot;1&quot; color=&quot;#ff9900&quot;&gt;&lt;b&gt;Server APP&lt;/b&gt;&lt;/font&gt;&lt;/div&gt;&lt;div&gt;&lt;font size=&quot;1&quot; color=&quot;#ff9900&quot;&gt;&lt;b&gt;172.0.2.20&lt;br&gt;&lt;/b&gt;&lt;/font&gt;&lt;/div&gt;" style="text;html=1;strokeColor=none;fillColor=none;align=center;verticalAlign=middle;whiteSpace=wrap;rounded=0;" vertex="1" parent="1">
          <mxGeometry x="530" y="445" width="70" height="50" as="geometry" />
        </mxCell>
        <mxCell id="-O9r-9XehU72l_ou3Ttp-20" value="" style="shape=image;verticalLabelPosition=bottom;labelBackgroundColor=default;verticalAlign=top;aspect=fixed;imageAspect=0;image=data:image/png,iVBORw0KGgoAAAANSUhEUgAAAlgAAAG9CAYAAADJBwhwAAAACXBIWXMAAAsTAAALEwEAmpwYAAAF8WlUWHRYTUw6Y29tLmFkb2JlLnhtcAAAAAAAPD94cGFja2V0IGJlZ2luPSLvu78iIGlkPSJXNU0wTXBDZWhpSHpyZVN6TlRjemtjOWQiPz4gPHg6eG1wbWV0YSB4bWxuczp4PSJhZG9iZTpuczptZXRhLyIgeDp4bXB0az0iQWRvYmUgWE1QIENvcmUgNi4wLWMwMDYgNzkuMTY0NzUzLCAyMDIxLzAyLzE1LTExOjUyOjEzICAgICAgICAiPiA8cmRmOlJERiB4bWxuczpyZGY9Imh0dHA6Ly93d3cudzMub3JnLzE5OTkvMDIvMjItcmRmLXN5bnRheC1ucyMiPiA8cmRmOkRlc2NyaXB0aW9uIHJkZjphYm91dD0iIiB4bWxuczp4bXA9Imh0dHA6Ly9ucy5hZG9iZS5jb20veGFwLzEuMC8iIHhtbG5zOmRjPSJodHRwOi8vcHVybC5vcmcvZGMvZWxlbWVudHMvMS4xLyIgeG1sbnM6cGhvdG9zaG9wPSJodHRwOi8vbnMuYWRvYmUuY29tL3Bob3Rvc2hvcC8xLjAvIiB4bWxuczp4bXBNTT0iaHR0cDovL25zLmFkb2JlLmNvbS94YXAvMS4wL21tLyIgeG1sbnM6c3RFdnQ9Imh0dHA6Ly9ucy5hZG9iZS5jb20veGFwLzEuMC9zVHlwZS9SZXNvdXJjZUV2ZW50IyIgeG1wOkNyZWF0b3JUb29sPSJBZG9iZSBQaG90b3Nob3AgMjIuMyAoV2luZG93cykiIHhtcDpDcmVhdGVEYXRlPSIyMDIzLTA3LTExVDE0OjAxOjA4LTAzOjAwIiB4bXA6TW9kaWZ5RGF0ZT0iMjAyMy0wNy0xMVQxODoyMDozNy0wMzowMCIgeG1wOk1ldGFkYXRhRGF0ZT0iMjAyMy0wNy0xMVQxODoyMDozNy0wMzowMCIgZGM6Zm9ybWF0PSJpbWFnZS9wbmciIHBob3Rvc2hvcDpDb2xvck1vZGU9IjMiIHBob3Rvc2hvcDpJQ0NQcm9maWxlPSJzUkdCIElFQzYxOTY2LTIuMSIgeG1wTU06SW5zdGFuY2VJRD0ieG1wLmlpZDpkZmE3NGE2YS1jNWNkLWYzNDgtOWNmZC1kNjA2ZWQzYTAxYjciIHhtcE1NOkRvY3VtZW50SUQ9ImFkb2JlOmRvY2lkOnBob3Rvc2hvcDozY2ZlNGYzYS01MTVhLTAyNDktOTAwMy0zMTY4ZDU0MTdiNGEiIHhtcE1NOk9yaWdpbmFsRG9jdW1lbnRJRD0ieG1wLmRpZDo4NGJhZGQwYi05MGM3LTRmNDktOGI5Yy0wZDRiMzkwYmM5YjEiPiA8eG1wTU06SGlzdG9yeT4gPHJkZjpTZXE+IDxyZGY6bGkgc3RFdnQ6YWN0aW9uPSJjcmVhdGVkIiBzdEV2dDppbnN0YW5jZUlEPSJ4bXAuaWlkOjg0YmFkZDBiLTkwYzctNGY0OS04YjljLTBkNGIzOTBiYzliMSIgc3RFdnQ6d2hlbj0iMjAyMy0wNy0xMVQxNDowMTowOC0wMzowMCIgc3RFdnQ6c29mdHdhcmVBZ2VudD0iQWRvYmUgUGhvdG9zaG9wIDIyLjMgKFdpbmRvd3MpIi8+IDxyZGY6bGkgc3RFdnQ6YWN0aW9uPSJzYXZlZCIgc3RFdnQ6aW5zdGFuY2VJRD0ieG1wLmlpZDpkZmE3NGE2YS1jNWNkLWYzNDgtOWNmZC1kNjA2ZWQzYTAxYjciIHN0RXZ0OndoZW49IjIwMjMtMDctMTFUMTg6MjA6MzctMDM6MDAiIHN0RXZ0OnNvZnR3YXJlQWdlbnQ9IkFkb2JlIFBob3Rvc2hvcCAyMi4zIChXaW5kb3dzKSIgc3RFdnQ6Y2hhbmdlZD0iLyIvPiA8L3JkZjpTZXE+IDwveG1wTU06SGlzdG9yeT4gPC9yZGY6RGVzY3JpcHRpb24+IDwvcmRmOlJERj4gPC94OnhtcG1ldGE+IDw/eHBhY2tldCBlbmQ9InIiPz7IyXJYAABGGklEQVR4nO3deaBkZ13n//f3ec6pulvvnT0hBIgkbIosAmHfmQiKAiNhXAAdQVRQGRVR/LEoOuAgAg6OCiMjuIAoGDaRTRYH2RwFAglIIPvW2+27VJ3zPN/fH3Vvd9Lp7vRy7j2nbn1eUN25dW/V/XYtpz7nWc3dEREREZHmhLYLEBEREdloFLBEREREGqaAJSIiItIwBSwRERGRhilgiYiIiDRMAUtERESkYQpYIiIiIg1TwBIRERFpmAKWiIiISMMUsEREREQapoAlIiIi0jAFLBEREZGGKWCJiIiINEwBS0RERKRhClgiIiIiDVPAEhEREWmYApaIiIhIwxSwRERERBqmgCUiIiLSMAUsERERkYYpYImIiIg0TAFLREREpGEKWCIiIiINU8ASERERaZgCloiIiEjDFLBEREREGqaAJSIiItIwBSwRERGRhilgiYiIiDRMAUtERESkYQpYIiIiIg1TwBIRERFpmAKWiIiISMMUsEREREQapoAlIiIi0jAFLBEREZGGKWCJiIiINEwBS0RERKRhClgiIiIiDVPAEhEREWmYApaIiIhIwxSwRERERBqmgCUiIiLSMAUsERERkYYpYImIiIg0TAFLREREpGEKWCIiIiINU8ASERERaZgCloiIiEjDFLBEREREGqaAJSIiItIwBSwRERGRhilgiYiIiDRMAUtERESkYUXbBdwxa7sAOdT1m0nvOp0q7odY4hnMRs9UZvS3BSMNIr1yN14WDAdbmJraDzZksLyZXnaGyxH7vt3YNX3YVhH3lvgtBdUgUJ5VY6cuUn9+C8wYRZ0JpyxTn11Rf2ErZZlguqQeDAkZGBbE++/BLh9iywEWnBxL0txmqB0citrxaj/1ps2UaUiyAvOMZSP3nNBbgj2bqPuZFAPm0PMEgwHUiTS3BXJFYUZNwAHLGdzxsiCnSL+3C889cp7GyGSvKfpLVAvbiP15rHSqhc3EIhP7JWlxgBuA4UAw73tmB7DNg22JnuYgb85WbAGfBqbJNmNmhY8e6v7o1gwdrx2vA9RuLLszHwj7LNh8znkB2A+2y0O82Qb798e6pprbRhhWFP2K7JFUF0QbYg5VKCmGCQqoQ8SyEaITLJBSjWGAU9xnnvqrU4Q9A+q5LZCdcnovdTVL9h6BDJ4xH/0bszmFO6EePa713FZiKkkhUSzsoo5Gnt6MVUbo76UoEj7cDpVhlhiQKXMinF6QT99H/YXNeOmUMyV5UBPqITn2sOUBIQ3J/S1YOYCigDwD4TpyniZUPbCMe8LDNEaPlBeJ05G04IQdA8o7Dxj+yzYohxAM31VSXrSL4mG74L3AWcD91vsNeIh9kN88TVVsxTfN4FbjwyG9wQDftA3Piew2+rdmoyBj5gwwcOiVTnbDUsCAKkNZ1rgH6hSIOCmCuxPz6I3u+Oh9vvI+wPLo1VAX2NQiwRL18mbMKmIZIEaGi8v04gxOgGIPVlT4/u1Qgi/txjDqmTnMa9wjRkHPSqq0SJzukXI1Ko44eu8BRIfdkfIe8+Q5w7+yHWxAACwZ1f33UH9jlv7+glyALwbKB11D/M4cC9dupdcb/VvZdOWoucHbeQrXRAFcP0t9l1nqHLCvTROmh9QeiYN5rL+F7FAVmV6O2PI+PDhMb8dzRQjT5OTQvwXPht+yjd6D9xFvKVn6jmP90THSzUavA8sAeArEmOltuQaKevShsJae3t0nbQwClsiYs1v9feB8wSHnLcCdGX1Mn2H4mQ6nAqcAp5r79kzYAmEGZxqsBHoYwQ/5JPADv2IUYnBqgyXHl8m+DOwH9gA3mucbCMWNXoSbLOfrMb6DcyXODas3v03h3T1+iYh0lgKWyBpygGxnm+ULPZUXuPsFZvkunv3O9aA6F2P6Vj/JwVPzk1YAm4BNt4ti7lCUJDMs1xCMOpUJuM7wbzvhP9z4uuFfw7gM41vA0sH7UauyiMgdUcASOVkHm48gx3PwcF93Hgjcy7y4Zz2Yuyshm6cS0qibq/WQ4o75bdJcBM4GP9uJFwGYO7kIALvN/d8x/g34Au5fMvg6sNxG6SIi40ABS+S4+eqfZtgFBB5sOT804A+oq5kLMArIt+9ZM6fJJqq1c7vKtxk8HPzhniGRALve4HPAp/L+4jNk+xKwcOAWq92h6l4UkQmlgCVyR5yDo/ex0xwegfujDR6JcfeVUb+j4Us2ManidIcngz05XT4HMd2cZ6Y/i/uHMf4BuKztAkVE2qSAJXIrt25bcgOyQwz3cAvfT/aLwR6U3HqszKK6vYkIV7cVM5jt9NC72DxfDJAGs1/D44fN/H1gHwWqlqsUEVlXClgicKBLy/3Al/cJ2X84E37Iy6l7YQZ5dezUBIaoo1lNmn5wPrbn4gLMLzDPPwfcDPZe4N3Ah8GGaz93W0SkXQpYIsaouSrZebm0S4LbJZb8HqMotZK6fBzGTnWI3SaE7gSe48ZzgL2GvQvsbcA/KauKyEalgCUT6GBQcrNZnKd6ij+Z0uwjKPJtVkyQxm0x/LnZ4nNz0f9WCPnt5PxWsP9ouzARkSZpqxyZDAe6sUZ/uNk9DX+TE6/JIfwf8Ecc/L6sPYcQz8tl79fx9M3M4IOOP2W0zLeIyPjTwUwmgztuhpflU8z944niy5nwM+Bb2i5tYrlDHk3PdOonmNfvSVMz3/Zy6qWWfVvb5YmInAwFLNm4DrZGTYO9KBV2ZZ6aeQ/OI1qsSg5rNNbNYzzbQvEq83w9+JvBztOaWiIyjhSwZGPKgNk2nFdh3EDgdQQ/99Yz3aSDDkwooGch/bRXM/9RL89e6uT7HTJwXkSk0xSwZGPJ4B521rNzv5em564j+0sZ7cmnFpCxZORUXFzX+fPJ6g+7cT89jSIyDhSwZGMwh4WwNRczr6vz1utyOf2LYP22y5KT5Zj56koaj63Jnw/wEbD7a9UMEekyBSwZXwY+6jYq6eeXpivmrkvLcy+ioLCcUJPVxmTGo5PFz9WL+W98Pt6FoOdZRLpHAUvGl0Mg/ATYNTivIviUuYLVRAhO3mc/lK+Y/aYVvBl862gfSNPTLyKdoIAl48cA/OF5UF8Wsr0V45SD18uksACUDvDTAbvWq/RCd0cJS0S6QAFLxocbVtlp5rw7m32C7Be4PkwFwJjOw/r33f0KD+FRbZcjIqKAJeOhdPKe3ovz1+auCb30VEAtVnJbZhjcLVvx0Ux4D+7b0RaSItISBSzpPMPvn9y+mtxeQya2XY90n5Gf4r3y6tSf/kmS1j4TkfWngCXdY6wuNhnAXgv+OeBCDL1i5diMVoWf9rL84xz9k27cFVBrloisG31cSfcUGd9TPiB9c+4bNuW/1HY5MqbcwTMeeGhO8Rs5h58FV8gSkXWhgCXd4LC6FUow+22v7F9YiOcRNYhdTo6t/Ol1fkMaDj8BQbNORWTNKWBJN5jjKdzVc/g3I7yE4FC4ZtxLw9LD03Dumlz3/rOhsVkisnYUsKR1Vjh+zfSzfX9xhWP31qa+smYM8FAa/GXG/sTdUIoXkbWggCXtiY4vxGDZ/pyb+2/xQTB1CcraG73GEuG5blzmFu7eckEisgEpYEkrHCNMp7vxjdmv5pv6z7LNNQR1Ccr6MRzHLsjEr5nzLNeYLBFpkAKWtMIt/7A5XwvB765gJW0yjEz959mXX2es7GcoInKSFLBkfayuqB0At1fkwLscoj7LpCvM04vM+Jjjc0r8InKyFLBkXZg5ORUhD/t/a5Z/o+16RG7PcPyRebn+mmW7d9vViMh4U8CSdWGWd6Y6/muq+z9opunx0l2GnQV8EfxJbdciIuNLAUvW1qhr8Ltx+zL4vbGMxrhI5xW58P3F++srZ36GXtYrVkSOmwKWrBmzRErTj/Wq/zkL6bS26xE5ZgEYRtKNxZuw9ColLBE5XgpYsibcwaI/M8fyw9ljqUHDMlYcCI71MmRe6mZ/2HZJIjJeFLBkjfgLMN5h5ihcyVgbLfb+fJx3tV2KiIwPBSxpnMOv4Lyx7TpEGvbDwIfQIEIROQYKWNIog183+J226xBZE9Pp8enKmY86saDfdjEi0mUKWNKklwOvbLsIkbViM4l83dQjB+8+66PsjQXTbVckIl2lgCXNcF7u8LK2yxBZU9mwbUP8O72HLV9x1j/5bCjaLklEukkHBzl5xm+gcCWTIhs2PcSnigcPPnbOB22qeizJICeKwQzxcbvg3D1tVykiLVMLlpysFxu8ou0iRNaXYSHh8+Ex+fqp9/pNPfJNJfmGPgx03ioiClhyogzc7SdxXtN2KSKtcLBexqbTk5nKf2EzGZtJELUsiYgoYMmJMHDsh7Dwx22XItIJxo84WoxURA7qflv21W0XIAC4kespfMrxq+ND6ly/06LyuchB4fnudg34b7VdiYi0r/sB6x/bLkAwIBn13p0Mqqm7F2V6n81WAdd6iyKrzIw6VK/iO/HaEGbeGgaO9ZfWdiODKfCbIp6D+iNEOqb7AWtL2wUIDiSwlOZiqt5j5lsVrkRuz2Zr6v+36S3+qZ3XTc3u+aDtWIK0hr+wgLR7BlLAomtTKpEO6X7AWmy7APEyQC7IXvyNYXfX3oIiR5ANm07QG/61T+f7s4XL1yxg2ehiyxlf1AmPSNd0P2Bd0XYBE8wBg8UzzsZC+cbg9ePNcttViXRfyJvqunxX2rPtgZGp5cgM0PB7pw5wyhDO3APX6X0p0jXdD1hr2bwuR+dAgJB5PsYL2i5HZFyYJTyV966rLe/ANv9QtFMgV83+kmEB25Zgy77m71tETlr3A9a529uuYDKZ43VguNx7mBl/qKQrcjwMLBNifiosvsLtppdZ0XQrU4TeAMzRmEiR7ul+wJqdaruCyRQcHxY7kvXfHqjBNe5K5HgZkdqHv5Ft6XNTvfj3jc70iwH6Qw705YtIp3Q/YO0atF3B5AnOMEyTLP5Z8OqctssRGV9OMMO8+LO64r6x9m9bopk8NADfBt5v4L5EpHHdD1ixbLuCyZMSYC/zYBebZgyKnDSHbVXtbwvL6RE2b7AUT37dqgXDt4DvdEwNWCKd0/2AddppbVcwOcwg1Qxu2ffYnHh5aHrWk8gEM+zhVdX7nXjB0q8WD7oRlk8yYZUZ9k/BlQV43UyRItKY7gesRS2EtW7MSG5b3MMfazkGkeYlj7/iW/MnirOHH2jkDm+IcPl0I3clIs3qfsDavavtCibEqCuwKmbf5BbvbOpzEGlcmK3hyvLN6f3n3DvOTe8jn+CJjAF1IDGPzc03WqOINKPzAWv/tGYRrgcHyhSeZR6epZXaRdZI6fhyvFP9jan/GaamnmVVHi2zcALyIJDPXiKeqlmEIl3U+YBVJe1guvaMwjjbPbxJ4UpkDWWwnpF86ZJqefDeXur91QllIzdSyuSypvCAdiEU6Z7OB6wixbZL2NAMyDiF8ZpgvkWHaZE15hAI1P36D0KY+1iRt92IZ47v5KbAqnnM1T0o0lWdD1ibejNtl7CxBajS0rPrOv2Iq5tBZN0Y8dRUV78fN11+ifX3QT7Ww7GDGfnmneBaxkakqzofsNis3Z7XTKip95+6LS1vepUFzRoUWU9GIFM9s84L7wpp+d05H+sJzmjdq+SbsTE4hItMqs6/O6uh9sBbKyEEUvLfdfKZarsSWW+ORadeOPW17LEPhxyOrb/PgWi4JYItr22JInLCOh+w2HvPtivYgEYjr4YsPYGQfspCjWYhibTAgZjOixZ/rTcML8GO4YTSjRydlDViUqTLOh+wiuXZtkvYWLJhPYeZipz3vzJ7RuFKpD3mRrb8y8u94V8b8Ut3eAPPYBk75i5FEWlD5wPW8rnfbruEjaVwfL6APcXPx9IfYApXIh3gwc1f07dtjzXrwZG2qbII1RLDtBu39Tt8H1dbmaFzNhHGIGBN//B1bZew4aSvzZ0xfM9pL/et2r9MpBuMAI8Z+PwldQ7vsCO8NR2joCYGW7sl61bXLXUPwBnAKeZsB3a4sdlgC9Bn9PlRAsPRxYaYz5PtZifuxXw3cB1w08HVVJW+ZHJ0PmDx7rParmBjiU5aspewKW1tuxQROciBzPJLLKd34EcLIcYo15z877vVPZ7icF/gQjO/R07hu4CzgvkZDnPBV3/v6s/byn2s3Ivb6L9Cxqv+KKNZAmx3Tn4jub42hPA1J33FyV8P2P8Dblq97W3+aRpaJhtE5wPWwtd7bZewYbhDsHDPMOs/a9M1aAyHSKeEQXmvsNlf1PvR63+fCLdv7anJH9pB/YVp2HziS6s4nG7YI8z8oSmFiwwudHzKAQvgRw14d+C2W/9sc2cb2e9uFh6VqQBIqbdEKv89xPR/PYRPGfZRh1vcD4Y3kXHX+YAVtLZ4s2L1a5iZwpVIB0UnU/6Gfyn+haXhDbdpzXHwOfB9JfRO6Lh4oZk/NRMudvzBEQwMX49DrB3yH27TOA/Mlh7onn8+9GdqNz4bs7/Pzd8J9o1DbigydjofsGLnKxwfDo9wt0vUBC/SUaXjw7i9+vudv9LbN/hFilttFZad1Ivk06ewTTVUR95GzFf/MM52/Fngl+DcZ3T1bQ8A7UQYX/nFhjl4CAVwkblfhMffBv9XI7/dyX8OXK+cJeOo8/Gldi002hTDXqrmd5EOczBq0tnTP5OZfUPw9K0D3zMjhwCDAdSHeR/7SqZyx2L5pNwPP59TeuJYnFCtNKOtlmrwPZC/p/bl3wXeT/Y3uvMhHb9knIS2C7gjpv818z+3Jxv2uLafTxG5Iwa56tcMXkgBFAZFGC2xkoe3HeK0Oih81FrVB55nmcuDhffnXu+Jo02kx1og2PenYf1Bav8KZs+liRH+Iuug8wELD7o0cDGzX2j7qRSRY2MYnsNPL5jddV909pbGYHERqxKEW7XiZMeNMs3M/VLu9a8yT//TsfNxh7yxFhE27B44fwL+HeAFjEEPjEy2zgcs1+WkL8ATgUcd1wMvIq3K7lNxOPi52WrIbEqUwyXcVxepstF4rVuK56Vvbbs+75h5LWanrM+I9dadbvgbwa915zngcOBxEemOzp8BBI3BOnnBXqiDj8h4MQMjPidUs79nw3BVYvdoCQQDx59ggT+kjnfxIViZDpxNTZBTLPOnRPtvmfA8aj5BYBIfB+mozges7J1vZOu0gF8E9sS26xCR45djsalavuWni4W9v+69PkY4M0X7U8yfaNlHfRCTHipm0wX1tdMfD2bvtunqeSzaaAFTnVNKyzofsHpWtV3C+HKnDuULtDyyyHiyVJOn+j8+mDr1FbGun+7B3qazzkMYWDIcfih7/eQYwvPJ9qeo11Ba1vmAVey6vu0SxlPK+MzsPeqtpz2TpG5WkbFldoY5V6Re/yxzDxMyzurYOTDaywfLlCnkP/FgT4s5PBNnT6u1yUTrfMCqN+1su4Tx5JlU9p7t2XUSJzLOnAjcyfLYL7mw9mw0TM3xJ6aQvuO7ymd4sg+O1rbQkVDWV+cD1tLmubZLGDtuEDI7isp/zMZ/HRwRkePmgU18c/YDsci/4wUvabsemTydD1iWFBCOmwGZHzH3U9WZICKTynoJc37V3R7o+FOAhbZrksnR+YBVDDWe83gZYJZ+Qvs5i8jEM8jZH22Br2D2SODKdguSSdH5gHW4Lbfk6Ax/dDTu33YdIiJdYKOJ1Oc6/mVfiE+iDp/UkCxZa50PWDHUbZcwdsz5zxrQKSJyW9ZLs9Vl2/8pxPhkivrSMfgIlDHW+VfXlClgHSvDSYQdlRc/3HYtIiLd41iIDLG/d0v/2cz+uu2KZOPqfMAa1r22Sxgv5k/F2NF2GSIinWSjXVqj2V+tNPQrZMma6HzASgtl2yWMh2wwlbGp+mmjpRnURSgiciQGVDn9lYWcYuBviEBeuWwUmiPWqs4HrP733tJ2CWPBepl0/dT56brpJ9BTuBIRuSNGZph4VzF/yqNwPk5cppydH/+dxQxyHUgLWwjabq41nQ9Ydk8tW3IsbHMN/xKf4t+axXob6RRMRGSNmGMY9fKWS6njg+jt+XI5O992VSfPINUF1fIsfdvddjUTq/MBa/mvzmq7hPHghhXpB21LNVrKXUREjomFataL/F4r8gOIjH+3SQDLTghJnwct6nzAoq/WmGN0N8MfojeTiMgJMD/PcvkXaWHu8SGnMR7F6mBGoj8a0G/j3t85vjofsEq9OI6JOxdnDWkUETkhZglP/ccN9p7xhqm8/+csJ8ZzslAmW49hb5rS6rH8F2wUnQ9YA7XIHAOjwC8e/5GZIiJtMbBMKIY/W+f4z2WM77DIGB5WnboOWKjBx7D8DaTzAatkuu0SOs5w0hnO0veZzlVERE5abeUfhcI+X5RcPm4JxYHaAdfwmrZ1PmD1TOtgHY0RSAweMXTfPJ7N2SIi3RIsz9WV/VEwe1SwDHlMUlY0qsohx9H+i9KqzgesJdvTdgmdZ5nHm4ZfiYg0xt0fWVX+4v508Vp6EbzrIcvIwyF1SkBsuxhhDAIWruBwR8z8+8atGVtEpMvMINX5NXUoP1BM9b7iuctdboZhVAvV6iRCfSR0QOcDVkFqu4Rucx6UCfdouwwRkY0mxEC9f/nV9b76KV3ucXOcHGqCOxaUrrqi8wHLTS1Yd+ABejOJiKyNTH5y4enHesPibZ1bU8qAQSRtGrBETfACpavu6HzAolbAOho3f2Tn3vQiIhtEwPCQX7E0PXx3Nt/fpZYsT0b//H2EW/qEeY276prOByy3Lvd7t66Pce+2ixAR2cg8+LkZfs49vLo7p7OGZ8hbh9h8AV5oInnHdD5g5VIB60jMuZelcH7bdYiIbGhuROcXgvv/go7sVehOTpHoofsTHCdU5wNWHNRtl9BRjofivgQbg+nDIiJjzjjFjRdb5iVtl+JAihlLtjLiSk1XXdT5gFXuurntEjrJUk217ZQHp5k+lhRCRUTWmsPzCf46x29sqwYb1YGjWNV1nQ9Yg52ntV1CZ5nFCxSuRETWzRaP9oKw2P9NlgOEdew9yAazCe/XeMpotmD3dT5g9ePOtkvoHMPIpDOqvPe+Oo8REVkfDthi+KnyvP3/3c4cLDBYx1nuvQzfnGV4Y4H31u/XyonrfMCq81LbJXSQAflOwLTClYjI+jDAq3BG2rH8jHCX+bf6nnJdDsHWc5ipydf1oOpBTwtwj4POB6zEYtsldNUDtf+giMj6ss0V1b9sey6f2/FWm8qwlhPdDTwXxLSPNCiJ0z1sU722v1Ma0/mApRlyh2cW7n5wuKOIiKyLbJDsovJxN10U7j3/ad+3dh+jVmRYKMgfmSLvDlhc40Anjep8wAraKuewHLurwpWISAtmE/nzm58ePzfzaXzt+gidmlxlmHUoFa7GTecDVnYt/38YpVm+Z9tFiIhMIgtOXoxPyYP4EjMaHyjsbpgVkId4tYjNouG2Y6jzASuZXlWHcUoBZ7RdhIjIRHLw0s/L/fiYAJc23ZdgYUhmCh8mWEig8bZjqfMBq3St83QY57lZ5587EZENy5yc85PDLf1LqRpYEysZYTaR52rq2XnCsI9l1rIHUtZY5z+ks1qwDuduelRERNpj2fDEI+xxN5Zx57Dyk1kTy8GmMvUVc9T/vpkwPVrvUONsx1vnA1alBdVuww2KmnOLWmc2IiKtccD87in4A93Cp/1EJ2S5YWUibBpQxzmSQVCw2hA6H7D6lV5oh3GGq2VPRKQ9Adwj+ZMzj47lnk+f+B05Pl1SbT2V/B9zhK3D5mqUVnU+YGkZrMM6u+0CREQmnQHM+QPqfgQ/sRasWNf4ZrBTBnDdNCQbg09mORZj8DSqpeYwFLBERNpmNbnuX8RwZjvmu4779tlh3wK51yeG/WtQoLSp8wGrX2p66iHisMqnZRQ9RUTaZZjl7UTO81zsOqZB6W5YSFis8QQWayx0/qNYTkDnn9XhchsBy8ESozcPODbqq7TR1y33W25xY1bhSkSkfZ4LYm/hwcX0vi94vuOFsS3U1INNpOVNmNU6U97AOh+wKJZb+KUGXoA7o5iVMTPwTPaVbyfD60Do10DE3VmnKbWnmdnm9fhFIiJyx8y4pxnHFJbMAuaOj07dZQPrfMDqb7tmfX+hAfUUDO4CacBinSlxirKPL+xh4IaXM8S5AWHnkOrbcwSrwAIEsJXgRT+vVd7avib3KiIix81iTRrOfle9vIWjHfQdCMGIRUE9XCQU9WjjaNmwOh+w1j3ir56FHHYZhNF1zsq6JVsGJLYQl/cRelMQ5sj9JWzzEJ8vIY5+3nKiwX/IJk2sFBHpCDewdIEVdR8YHPZHAHPDgmFFhiqP9htc30plnXU/YLWRJpwjjLNa6R888Pch1+cePrOfeO4yfDrjvYyXJR5LzBP5pLdCdyBsNu1LJSLSJad5yKcCVx3um2ZAHdCegpOl+wFrHBzoe8+MBsjb6K/BMuRMmiuJXtLzabKvjOc6oV8TSAy2JF9CIUtEpDOipeLOHCZguTuxsJXeQPU/TBIFrLViBy8O1MHo1ZEYwknMQgyA9VNjRYqIyMkznHSGc3ABHSPc6kTYD/ycTA4FrHVgRJIPWcyL9Pp9Ul1BlU6gJcuBOGNWoDMhEZFucGoKmz2rYAYn4cDQ9kOuUaiaXApY68QwgkfcCrJlQhg1b/nom8djRvsHiYh0h2G45W0p1AeW7Bktw6BwNckUsNaZ+coweTNsdcy7BQgZhnHUMDWVjjx91+mvU6kiInJMIsmXt9RpkZW4hYfIaFiHTognlQJWy0ZvRcOWnbhtQAoBdhdQHPFNGfR2FRHpEid4KCGO5pSbn/SccRl/ClitW4lLw0DYsYT3jHRtHzbV3H45CADueC8GERFZVw4PAX8K2C7gRuAaYKHlsqRFClgd4zjmgcgUlS+B3S5iKWCJiHTPdwPvAccdYmI/+LVmXJ4zl+F8HeNruH8V2H3gVuqS2LAUsLrIDHPDPawsKj96w2IOsKhZKSIinTcHfBfwXe58PwDZqYf10IL9K/B58M96CJ8FrsDJOrZvLApYneWjQOUBVv7CI4bvQ737IiLjqgc8EHggZj+T5+ZgOX8jXzX9MYvpH4CPY9x8m4UUZSwpYI0Ly4Q6YvieXPho/ysRERlvwWEQ7ub7+3ezqfxTOMt5OPcZ8Pca9d+CfUcNW+NJ+62MCYNpD9Ujc8hPV7gSEdkgnFHI6ufV1qopUv/ROVe/n2L+dp6Z/YRX8QXu4bTRDXT8HxcKWJ0VVv/4ATf+mmzXY/YxjMe0XJiIiKyl1UUSLUAZHp6HM2+01LvGLb/b8cfd6gfbqU+OiboIO8fA8z0T6ScDXILlU9uuSEREWpJ9dYJTzM5TgacG7Gp3/gT8fwI3Kmd1k1qwuqKXybf0LvYbep/IU/WXM9WLAIUrERE51Nlm9v9ZwdX56qk/9aVwgZag7h4FrG54rvftG/Xu/qV+c+/h1j+4I7uIiMhhRS/z9f3npMVwmZl9EPOL2i5JDlIX4Xo7kJsczH7cnZfj+VzcoFzpdz/SPoQiIm3wBDkzWiLGV/9/wMEj1sruE8GAEoLO4deUMxocDxj2BIwnmNtHHH4Z/Iuw2rsobVDAWm/uGPaDZHu9m91JDVUi0hnueB6OAlUaQp3ByBTFwIoZI/QCFgKjCOUczFmruxpnckqkQe3DWwJVPQUeKCIUUxB7WJwaDd7WAk9r5TGGf8HgQ0b4JTf/StsFTSoFrPVgjFZiD+G787D6X+b2QDclKxFpm0GuIQ0g1RBibb3ZTOwbxVRtIZZggVT1vF4K5MpGB7MjioRYUm7LYfOdErEHMCTXA4b7e17tT75wY0Fd9+hNYb3NUPTBtXhys5zgPMGneULa23sbdfxFK/MtbVc1aRSw1opx8PzOfTZmXm/Gcz2jNtsTYpCHo6RqKyscw23/e/XnuPVV4xJkfSWFr/a9+GGu98Ncf8h9wGgR2nIaQjzMz8j6Wt2w/XDPQ1uvTRsFmrQ86vYrp2qmdzihMDwHqoViFLgG5Qm9etyhXg5eL6/2D/ZWLoARTrlXIvaXqRZSnr8qsOfGafrTWH/bqEtRr9nmTCfSdVM/hnEJvfo3PdurtTb8+lHAWivZ8RjwGJ9p7m8yZxswPp/3XZMrp5xzch1GoerQIMIhB+YxOoa4Q4iOuUFYeY2YH9gqw+yQIGmY3Sql36o11H2lvTRVUC8EQrmO/xC5PTvk71tf38JrNCfIFYQi09+aCTFQLRbUS+tWgi/eFFnZtN6mdrjtuHDAYF+Vd1/RJ9elzZwGsVSrVhOyYb0MUGQPv4XxAvP8bJx/aLu0SaCAtRbcIdjWPDXzF170nmg5tV3ReHMHC04eBtzHKjsdm9WWJwfS6pdHjeJ+9O8bvU01wz0KWJ21zi9iz6OuwFhmyi2Qq0AaBNo+NKWB+b6r+kA/7LgwYcVCvunLJV73bO6M0cmDWrSadKaH8KE8PfPXhdsLwG9uu6CNTFM8mmRAFfDd4SlpevoqYvlE01nYyfMaYm+DH2ibbdo0C+5Zrz1hFKwg05vNo/FUg9DF1iFfuiX64g2zYfvdYth5j3nfd31isG/U1S3NCr1n5ODfyeY/Ya5Ow7WigNWk6LBQ/En65tx7KNKcXrWN8dv0g21IDb9W3Fdapzf4wyZH5hk8ObGfsRBI1Vgc732wN/ry7k3hzPvVji353qtWZh3qtdwU84zj0xZ4azTeD2zWx1XzxuIN13nZwP38lJcuw/y51svKVk2yMJo2vlGZgWcffYg0JA+h6A039OMmR+Z51K0eSsPTWB7nff81fetvmg7bzt/v+671iTjPaoPzpFTY1R7DD7qpNatJY/nG6xLzTJ7qX5JD+Lp7vqDtejYczxAKxzfy6qvGaPB+c29Hr5ctFLN4rhq7TxkTq5MmwLrYFXhc3PF6YS6c/j37fd/1o0H6ClmNs5w25f7M3+b+7FtISQ9wQxSwTsjBGUDm/rte9t/uMeptvxZGC4hNxkNrodlPw1DEsf+AlePkq0sdbKj3jC9cvymcef+FPH/jKGSpu3ANGOb2bLf8VTe/K74aD9SkdaIUsE5EyPhiWaQr595jhf+y5bzBB2C3bWN9WBye0/ipeezXaAbrhNm460j5/qtn4xn33e/7b1Qr1poYvW7cuMDdL4f6Ej+wjpucCAWsExDMT0tV/EK9u/8U0w7ma8ghBJ+MVhiDpqf9WSjIOkBOlo19PPKF6+bCjrvN+76rNLtwDRkhJF9+u3v9+2amQ8gJUsA6LgbOPdztXy34fTSYfY1NVvcgpKE1OtDdcyCQJiOgyqTwVM8xvX2RwR61ZK0pw8xfmOvyHz2V05iOI8dLAeuYOORMLvsP9SJ+0dxPb7si2WAsgFdGKBqL7D7cj5WzidZXkxRpUFq2sO386IOFpBPcNWYJr3uPsdT/qoX0XW2XM24UsI6BWcBT9aShhU9aUfbVbLVOJu3sNDvEXnOniV4boSzUgiUbjc9f3Q87L1zyhetotNVXDmGYOVi+s0f/MoP4GOqg/XSPkV6Zd8SMOvtTh/j7zdOGHUDaPUfbJHeD8mzWcKq02Eta0V2aY6NAc+tLWwN0LExjoUJLkawLm85ldUXvH6ub7RJ6E3bye4IUsO5AhKclz+8e5Sq9qGQNBcNzXTd6n7HvK1uliJyA1UBljJotfLT1zq0vuGMhEwonlt5kN/fR+NItMWy/cOiLmlW4PgwsU+Nvh/CitqsZB9rs+UiCkar8/Z7yO4PevC2YwMc8lFAtxpV1jJq618Im8bGUk7Taepwhs/p2tAOB6zbcyLWNXrMrr9tQOrEcTdxYS7Ho4aEm50Ihax0cmFBorzPY6fivt1xRp6kFa5UBkVHkLCAP02OGKf39JKzAJF1hkIdYaG4clnsFIWgmoRyn1YBvq61XHPmkZyV0hQihGF08GdWi4dmJvTVr0fKFG8qw9dyBD+fX6lfIETi8FON/tF1Hlylgwei4Ufeo9+6g2ruVemH2QYNq6R/woHN/WUeGp6HRm2nuA6laCkTNy5B1ZmEUtMAYLhqhXLuEP72zYLB/ze5ejsZ+AeeNOsAcnroIYRQzU496ficpprsF4wMWq6AXjawrM8gewJobNOUZQjSSxmFJCyxADKOgX05lct38SX29FOnPDMipr8VHW2C8wI2A8zNqkbgttWDBqAUrZEJR7QxF9UGL1da2S5IJFSLkutlpUXEq4QpY0qJYQL0cCGXjZ62+dEth/a2m2YQtcn8+uLoLD6GABeDgTnTjPcBd2y5HJpcVJT6Y7zV7pyFoeRFpXYiQlsGab2WymVNrH+5t/H7leNgvgL2i7Sq6pPtdhAvnrd19m+E5MayGuMU/I6SHqIVT2hUhDWp6mwNpuZGXo4G5addWaZuBH5ie2OxrMRR9kk4iWuf+G2BLbvbqtkvpgu4HrLXsrYsJckWuwsuJPMu015K0zQI+2FeEzedkX1hu5FTfcwVWOLh2bZV2hQi5Wplp2ODxNleZspfxXGpl95YZv23OTQT+hMion2xCh8Z1P2DNfmsN7tSBQLW8DXJ4mhX5ZWvwS0SOnwXIHsEGNHVYyimM9rsQ6QRb2WulsbTvw/2FxV7GXecQLTPL5MwfD/dvu9Zien9MibB/71q0W3Ze9wPWpj1rcrejZVpmLyQVfxZ0wiOd4VAUkIYN7kmYIPQyeRjXYvyLyPExRquXNsiTEfo2ul+9xltnkJa2vMctPihUy1/gur0Hrp8k3Q9YNzd8fw5eBHIxHUMOb8dsRssxSKfEEobzzb43Q4Sks3vpALPm93RNQ6y/aZCXbpm2UDZ733JCLFYFMV1Kru9HwbVkJu6jtvsB6/KG76+CtGWG4eln/lHwwX3RuCvpGLMCrxZq+psK6kFTkShM2sFNuswNi82OwyqmnDSEcra5+5STYpnT6xDeydzcRRZrQrk8USGr+wFr61SDd+a4O3mq/6OB+rkN3rFIc2KJL9w8FTaf615f11TA8oP7yYm0bC3G41gM2hKqYzyTQ3zIYNtZbwmb9j9natM1kNouav10PmD5tu2N3ZfhJCvOq633h6Gu9VEjHWWjP4wB0MwZhmfDtBuudITBGjRlRAWs7jEcUv1sW05fppisvQs7H7AWejPN3JEZljJxWL8lWD2ncCXd5VCUkIbNvUo9GwQt1SAbmJle2t1kocaXp35vubrTv/W3XfOPFtNEtGR1PmAxaOiMxMDMfxnjkc3cocgasgj1UnP3N9qT0Mm1oYYs6YLmx+IEnTx0mIHn8JY8nP6eWC7uIuQNPx6r+wGrPvmAZRhm+b4x+G+7PlxkDFjs4ct7M/1NTt3Miu7qIpQNTdtBdZs5BucM9pz11nLzjT9Qbtm94Vuxuh+w4smvaeI40XijaxEgGRexjy/eOB02n5W9qYCls3vpjDV4LRrq/h4DFuqneF282PfNvNZSuaGfss4HrNmlE8xEK7NUbEvNIKdfyDUP0fm7jI/Vs/E4pKmB7hu9PV7GTMOvR8+OBR3lO85iRT2ce43N7/hYmcIX2MCbTJh3vVn12ye4pkkYJaz8qe13G95cfple7jdal8ga8+XdhG3nV750czMrJ9rKPnDaq03GxmE+fe0I1+M2msyhjDUOHPtcLy19X/TKRxsWnqAX3NRcUQ3rfAsWZwxO7HbRwZyhpVd53etbr9myRNacFZCGNdBMwPIMFiZwRzAZH4fkJne77XW+ssuO24Gv3Ud/h3K0Y0HXGw1k1QPqUL46WvGroy833vPW+Ras9IYLT+BWRqhrkuUfqKbrvzNjIz53stHlCrBlypl+Y0s2mLnO8kWkCxyjtPiIwsp/GrVincAH9U99tfG6mtL5Fqxc3XD8N3Kn7s8UXvRfZa50JWMqlPjy7n6Y3une2JpYZpO4q72IdI+RGXp+XWDz/QI9Gt8EvGWdD1jlnt3Hf6ME1Wn9X6zLeC+rq+aLElk3AWJZAQ2NITQtNioiHWEE+N6KPf/N4DUncg9dHv3T+YDlO887rp83N3LIp6Re/m8KVzL+3HBv8H3qSlYi0i2pftWg5NKqx2XHO6lQAeskLM0e/+wC8/grltiprkEZeyFCGgyB6ebuVBlLRDrEQq/IvNaG8WIPG2e5ys4HLMvH3Qp1d8v282tRi8h6s2IaH+wtiD3I9cnfoefRQHd1E4pIR4yORuE/9Qf1xeWua9+HOxthS6/OB6x8XB8CRnBeaniptivZEEKEailSzo72EWyEmVp3RaRL3CAHf0UK1fucdMzr9XU5xHS5NgBCOo4uQvPvMfxH9dEhG4eBJyimEvVSM+9Xw3E1X4lId1jOEOL3Lp9+pxfVhf/+sY7F2ry2ZZ2Uzgeswo5x2uZovbkXZX1syEbjBPMmV6wztFSDiHSN48Taf63M9ucGN7ddz8nq/p4Zno7p4pbulQM/3na5MonWuM00FngeNrnvvKKViHSTc0rO/GwNHMulyzrfglXFY5iE6U7I/gKNK5ENKfZguFA0NuhzgwwgFZENyMDxn83Om4Hr2y7nZHQ+YPWGR+8iNIcU/NxU8KMbeFNu6az12CnAwGsnzji5aiAZ6Y0iIt1lsCM6Pwf20rZrORmdD1jFLdcc/Qdyxred8tzUm5klNdmLInIs1mEwkwVIw0DsNRSwVmkgloh01vNzsNfj3Nh2ISeq8wFruGn7kb/pYME3p6nyJyxvrD2MZNysdVgxw3ODTU+ra2GJiHTStpDTT+H81rhOeu58wCq2HXkMlpkzrMpneOIccwUsacs6vPlDgFw32bc3nkcsEZkg9jyP/A9gqe1KTkTnA1Y+SnAyHPP6J/Cojwtp0TqMabIIuWpu1u96DB0TETkJjp1dpOo5hVdvGsdWrM4HrLo+QokGnuzhOBeZRrfLRmcGnp1QGE201rrGX4lItxlOovjpTPGmIx2u+utb0nHpfMDq9QaHvd7MqYblj6QjBTCRDcXAU8Ci41pOV0QmhHHvHOxiN3tf26Ucr86nk+HyzJG+NQvpqWq9ksmhfj0RmTAhYHX17P6eG8duE+jOB6xcxsNeb3X1A+acvs7liLRn1E3Y5B2iwCYineYOFp5aTW25O9m/fmjAUhfhSejtuuG2V6zsyFbPbX0aMR74WmTDMwPX0goiMkHcIYSQZuee5oTfUsBqUFxavM3XljO51zuNEJ7UUkkiLTEO7nOjEwsRmRDuBOMZRb38W6Q0Nt2EnQ9YKU/f5mtLNWlm08VeFFNWd32rR5GGuRuhqXylkCYiY8LCfWxx38PC0v5Peux8dAHGIGCF5w8PfhEdspE/2HuK7c7dbhsUWQtqvBKRCeRekzbveLrVZ37SqwCh+wfCzges+subD34RgMw2qvAwiu4/uCJrQ699EZkslg1P9lgevDvG7cPkw+bWXV4rnQ9YS1/aeuC/HSgsPaqcTtu9cH3OiIiITIjsfmHatvxgP2P5U740WmGgyyGmy7UBMHfGNQe/MKde2PbYXPfR3oMiIiITwsB6Tv3hnU/2ZT612kVYvKTluo6i8wErDw9u9myWwe3h4zF/QERERBrjYHP1I+K2QHOTfdZO5zsxrUhYkQi9ITn3vjfX/Xtiar0SERGZPPZ9sd8/P05NE6em2i7mqLrfglWXo/+wiHu4tylciYiITCQH6vmFiwL5CjAOv9dLN3S+BStetTy6XLkM+8vHedH5kkVERGSNmNlDY68k9Mq2Szmqzrdg1ZvngNEa1vTC3S2rBUtERGQSmRk5h4emW3ab5dTpUVidD1jxtJ1YMHKVzk/7l77btPegiIjI5DK+K2S/E3X+dtulHE3nAxbDGjeDlO5qTommEIqIiEwmd9yx+tQz7mdF/LbGYJ2Ean6Jat8i9eLgfgpXIiIiE84zwdJ3l71uh4LOt2DlmdGGg6GuLyDlsdlFW0RERJpnIVAvV/eoFgbMtF3MUXQ+YIWUADDnXIUrERGRCeeOhXCvcq7b62B1voswpERIaQvu57ddi4iIiHTCGcFsU9tFHE3nA1btBbUXpwKnt12LiIiItMwM3Lcs7124W9ulHE3nA9aKU9ouQERERLrDinBe2zUcTefHYEWrTwfujKYQioiICODmFHVxWtt1HE33W7A8bAM7te0yREREpBvMjWy+te06jqb7ASukLZhvb7sMERER6Y4c0xlt13A0nQ9YvZk9m2O5tN1T53szRUREZJ1Ytp1t13A0nU8t1eL2GZwZi3XbpYiIiEh3dHohrM63YOVsU+70265DREREusQ6nQ06H7BCSD3My7brEBERkQ4xVwvWychYCdb5rkwRERFZV51ufOl8wDLwtmsQERGRzul0Puh8wBIREREZNwpYIiIiIg1TwBIRERFpmAKWiIiISMMUsEREREQapoAlIiIi0rDOBywHY3QRERERWdXpbND5gBWgwqjarkNEREQ6JbddwNF0PmDl3F8mx0HH1xMTERGR9VW3XcDRdD5glf29S6FcXvYc2y5FREREusIZtF3C0XQ+YBEHFVZX41CqiIiIrA8zn2+7hqPp/CbK1cLOebO8x0JFx8eziYiIyDrJzu62aziazgcss/pm4DqFKxERERlxQojXtF3F0XS+383MbzHz69uuQ0RERLrBsxP7xc1t13E0nQ9YKYSbUwjXtl2HiIiIdIOFQL08uKntOo6m8wFrxQ1tFyAiIiLdkXP/O23XcDSdD1gBI2DXYvbttmsRERGRlrmB+b7+5hsub7uUo+l+wKqWCNXSouX0dQ10FxERmXQG+FWQ9rZdydF0PmD1brmR3q6bCNXwGo9abFRERGSiWcIp/n2wcKe2KzmqzgespZ3nsrTjTtTlzOcsdXpVfBEREVljHkuKxfmvT994RdulHFXn18Hqbb8Ws0weTn2x3r8TrNN7O4qIiMha8kwuys+m6blOh5gu1waAL27GzfEcv4r5d4ButwmKiIjImrGchkXJF+nNtl3KUXU+YNlwK2AEy/PZqsuycycNdRcREZlU9sXayxtw6PLI7M6Pwcp5SM4DUqog83GFKxERkQlljqfiX+pqmrqearuao+p8C1YxTACYQ4r2T8N+wLzlokRERGT9uVH0978fS3R96abOB6zBdHnrLz9jni8DLmypHBEREWmFAdwUp+c/F+IA9y53EI5BwMIPba6yT4ArYImIiEwQw0nGJ/cv7txlPmq92tRyTUfT+YBV7t554L/NI7UtfyBt2fU8KwJoxQYREZGJEch/X9yu4aWbOh+w7GkHFxKzCDHnD+ZPbbmGfeEsekpY482A8XijiIhIuxx25cCHrONjr1Z1fhahV+nAJVc1DH0YCO/SSPc2NPyiNg7TBSwiInJb5pCCf3BQxOsGMbJ66bLOt2AN/uasg184YGBbh39rvfxCNX6sl5UHvvkHfPWORUREjsgN+lXxzulBwMekgaXzAcu3Dm5/nfOJmPgSkfsqZK0DdwjR8dxsGNJzJyIid8TAk19Z1/UHDv0Q6nIbVucD1syPXHu762xzTf2ZbW+pPrf1DbZZG0Cvk2bDlRnkbJgasERE5CiyE/vF/7G5MPAxGlbS+YBlXzj99leWTry5+PN6Or0c2L7uRU0UB7PmW6+IDrV1+/xDRERaZY4PrTLr/1mMJZ7HZ3Jb5wPW4DPTt78yG5R5D7P1O+iln1VX0xrKGWLP8dR8U5O7RmCJiMiR1QHbwTvT9P5v1ofpsDpMQugM63pzW7pm7rDX21Qm3zx17+qjW//NPKshZK2kIfTmnDRsOgpl3IO6CEVE5EjyfI/eg69/eHG/+U+y7zA/cGp3M0znAxYfOcIHcAnsgcGVZ/5Znpr+MXONxWqeQ06ZYsrIdXNJKJROvQihMDVhiYjI4XiMhIWFD/RvvOE/YRz+4+KV3c0wne8i5N1HuD4DBsU5e14/nOn/GGk9i5oQOUEx5eS62fXSQnRyDgSFKxEROQwHzCimw+vZPgvW/bhyqO5X/L3nH+WbTrTwxTDI78ieLrHCNPW/cQblTI1zyIN7Rw/0oUtcrZ5+OOQhhO6/9EREpB1uEJJ/PM7s+BBbThvLRam7/yl36h0MYQtGMb/434e7/RJcLSKNCiWkQWS498DZxEHH8ljfOmT5wb9DH2IJPj6zQUREZB0Fo9i7+zVcdx2Ezm86c1jdH4N1jGN0Bu884835qumftln1FYqIiIwtM3B/Z+/ma58Rqgo/Sr6yl3U3w3Q+YNWf3XH0HzAHM9Jlc+f5vvg1ytxbn8pERESkaQ51Jn8Pxlfu6Gdn/+t31qOkE9L5LsKlfz7zjn/Iwbamb4XZ4avDIP2mpv6LiIiMIYOY7A2xLr8y7hOhOh+wphe+dmw/uJAxi6+stp/xDGK4kDFa7VVERETA3W+IdXx1zHEsB7bfWucDVhHKY/tBzxCKlC38WnL/27WtSkRERJpmbr+cYropxWMbT93lMUGdD1h+yp2P+WcNKFL1d3XKf4HlZ5qNd/oVERGZBJ6dGIv39bbPvG00t238P787H7Aq9h7fDSLE6L+Uc/l4POzYCE+SiIjIhmaWhiH9ahosH9fNurwXYecDVm/btcd/o8B1w72nvjgtbnqrRW2hIyIi0mWxyL+QYvpytTw4rtspYJ2EVPWP+zYWEk743x54lMGPrUFZIiIi0gB3PlCWgzf0YoZivGcO3lrnA9bS/DkndkPLWJF+icRjgLMaLUpEREROzmizj929TVPPt97Mhtvdo/MBa2Z4orcMmMebU0jPHZb1B0PeOKlYRERkIzD850IZvk0sIW+sMdOdD1jhZHa+cQhuHwrBXkbgFRrvLiIi0r6MEb1+XT8vv51bjm9g+7jofMBiWJ3UzYPD1IBXLs8UD/CYn2wkjnV/QxEREWleMD4RA79ItrFfUPRIuh+wphcbuBMj9vjR5P3/R4rnovWxREREWmB49pt7JT8ayxL8GBcTH0PdD1in39TI3ZSBvWHvzqcPq62ftHgCUxNFRETkJDiOgYen41yF2YZeqrL7AaupB9/BUvwcw95/8b6/02IFrq5CERGR9eC5pJza91+LmVs+jhdgG/szeLICVn8/Zaje5V68OA1nXquuQhERkfVhyX43hvTHTGWoTniJgLER2i5g3WSw6QWK7bsoZ/b/HsTXt12SiIjIRuceyLl4u+fwq2SDxKjxpIlLh3W/BatJGahHf3vkRZZ8G2Za6V1ERGQNuBsWhn9v0f+LWYQJ2r5usgLWrZg7YD8ObAWe0m41IiIiG4w7IfQ+3duy6wes2Hewxelk1rccI5PTRXgEDj8IfKztOkRERDYKA3Lm30PwJ1hp3vXuvLUw8QGL0Uj3x6GQJSIictLMwUP4tzrEh3nyBVa3GByDcVNNUsAaSTiPBT7ediEiIiLjy8nkL9bGQz2GvRt7IYajU8A6KOM8GvhI24WIiIiMGwcC4f+mkocl8vykr4SkgHVbPmrJ8ne1XYiIiMi4cHdC8I/2er2Hkm1xkluuVilgHcocw57u8GYPenhERETumP1FMVx+DIE0UQOtjkIJ4jDcDcyfH+ulV+p1IiIicjiGA+b8AXAJ7pCd0RxCUcA6AsMplpZe5jk/Vy8WERGRQzkBfsnNX3jgKn1cHqCAdUSGBzDjLYT8EGBP2xWJiIh0gXscFuXSk8ow/B+eY9vldJIC1jEJ/xysd3fwf3fTQyYiIpPL4Jvudk8sfxDLd3yDCaW0cEwMCDeC3yek6m0alyUiIpPGAczfHWK+hxnfaLuerlPAOmYOZoSlhR8Pnn7STR3NIiIyOaKHF+HhhzEftl3LOFDAOl7mQPjTIvTvRbJvMgh6FEVEZAMyMMPNr83m3xeyvV5NC8dO0eCEGKTiKz6X7mZnLv+RDyKaOiEiIhuHAxlL/vYcwt2y8S9tVzRuFLBOVAKbTYQzBs+LLD+ekG7R0CwRERl37g6hXAiDwQ+GpaX/4iEuqQnh+ClgnSw3rDf4cGGcG3N8hwe9DEVEZMwYUBskg4L3R+ufFTy8B8/qoDlBClhNcCDbQkw8q1hefCzmV7ddkoiIyDGrDWbrG8Nm/6EYy4vd2YuZwtVJUMBqijngWFV9BOfcYOE1bZckIiJyLPKgeHM4Z3jnePrgb315deFQDXw5GQpYDfMAjudg8Zch3NPxT7Vdk4iIyOE4fCFW+f44z/dgS6tXyslTwFozjhtfDbU/LNT+ZDe+vTrlVUREpGXXOzzDjfub8wXDwZWsmqSAtcZW4tSlbnZncn4R7vvdgl7IIiKy/pxlgv1G7Bdn47wT0DirNaKAtR4M3AxL9euLfbtOian6TYpivzKWiIiskyH47wCnAa/CLLVd0EangLWO3Ayqejl4fkUx1Ts7Wv5tLC/6IIymxuosQkREmlW72x+YcaaZvwTY13ZBk0IBa70FVoKU7Q2xfmksirPjafmlTNc3kZSwRETkZPjKhT04v2UeznJ4IXBLu3VNHgWstox2IYBhsTueu/zbtqU6y4fhvxL8PxgGqAyC+hBFROQOrE6ecgfC1TH0XmgWznTn18FvbLW2CaaA1abVBisHzCpz/+M8CHf1MwePCzuGl/qwgBDQnFkREbkdN8AgZ9z4iAd+wAjnBOv/AfhS2+VNOgWsDjHAhwHbOfxH25aezHI6JywvvdItXnebbQzUkygiMtHcDUK+yQv778Xy0l1suPzYXJTvxR08t12eoIDVScbqrMN0dRgOX+bG2SQeb3P1/2Y67fXVuR8HutpFRGQSOLaA+V/FwJNjb+FMi8Nfcedb5qPv6gy8OxSwusxYfYYyi/HD4U5Lz46nDs6Mi+UzLfjf4baPrBYtEZEN5fYnzwvglxr+47idjdmPWMyXArUWsO6uou0C5Hg4wKK5/aUN419y58VNOdtj8jdmLraZ9ETg7JYLFBGRE2UrYSllgBuD2YeS50sx/0fDdt0mdK2GMGWrzlLAGiu3GhWfDOvneXP+jszfmRFDtvvX5o8xeBjwEGDz6s28Miy63owiIp2ykpLMFi3V/+z77RPhHuljIdaf4/JNg7o/GhOi7qbxo4C1cSSDz7rxWTcj1ExjPBjzi8h8r035/UmcrTFbIiKdcB3GF8zLL2H1Z0Jhn87L9bwtZegXYJnVtRF1XjyeFLA2moMBagn4qDsfpTLK+8yTrpw6n129+xHzvXP0C83D3cHPBWaxoJknIiIn7Ij9dUvAtzEux+3r7nw5mn8+YJdVuEcrcVZmLh0cdysbgALWxHDc/IrgdgVuf+nmFMlIxilGOt8Gy+fmqalzcM4BznHjLHN2Mupm3ASUB9ObzqdERIAamAfmjXiz49eY+VXA1Qm7OmSuJPrluN+wsintys0OHUwlG5EC1kTyW72n7SbcbwpV/Zk8dfAnshnRmQLfBmwC3xys3Ay2pc6D2RCsZ9DLUBr0bHTepSOFiGwUBuTsDINZ5c7Q3avC42I235PN9xnMmzGfc94dmV7MocKpADuYpW5Hh8lJYe56skVERESapN5eERERkYYpYImIiIg0TAFLREREpGEKWCIiIiINU8ASERERaZgCloiIiEjDFLBEREREGqaAJSIiItIwBSwRERGRhilgiYiIiDRMAUtERESkYQpYIiIiIg1TwBIRERFpmAKWiIiISMMUsEREREQapoAlIiIi0jAFLBEREZGGKWCJiIiINEwBS0RERKRhClgiIiIiDVPAEhEREWmYApaIiIhIwxSwRERERBqmgCUiIiLSMAUsERERkYYpYImIiIg0TAFLREREpGEKWCIiIiINU8ASERERaZgCloiIiEjDFLBEREREGqaAJSIiItIwBSwRERGRhilgiYiIiDRMAUtERESkYQpYIiIiIg1TwBIRERFpmAKWiIiISMMUsEREREQapoAlIiIi0jAFLBEREZGGKWCJiIiINEwBS0RERKRhClgiIiIiDVPAEhEREWmYApaIiIhIwxSwRERERBqmgCUiIiLSMAUsERERkYYpYImIiIg0TAFLREREpGEKWCIiIiINU8ASERERaZgCloiIiEjDFLBEREREGqaAJSIiItIwBSwRERGRhilgiYiIiDRMAUtERESkYQpYIiIiIg1TwBIRERFpmAKWiIiISMMUsEREREQapoAlIiIi0rD/H8040W5W3vOQAAAAAElFTkSuQmCC;" vertex="1" parent="1">
          <mxGeometry x="552" y="-50" width="110" height="81.58" as="geometry" />
        </mxCell>
        <mxCell id="-O9r-9XehU72l_ou3Ttp-21" value="&lt;font style=&quot;font-size: 12px;&quot; color=&quot;#0066cc&quot;&gt;&lt;b&gt;Subnet-Externa&lt;br&gt;&lt;/b&gt;&lt;/font&gt;" style="text;html=1;strokeColor=none;fillColor=none;align=center;verticalAlign=middle;whiteSpace=wrap;rounded=0;" vertex="1" parent="1">
          <mxGeometry x="350" y="260" width="120" height="50" as="geometry" />
        </mxCell>
        <mxCell id="-O9r-9XehU72l_ou3Ttp-23" value="&lt;font style=&quot;font-size: 12px;&quot; color=&quot;#006600&quot;&gt;&lt;b&gt;Subnet-Interna&lt;br&gt;&lt;/b&gt;&lt;/font&gt;" style="text;html=1;strokeColor=none;fillColor=none;align=center;verticalAlign=middle;whiteSpace=wrap;rounded=0;" vertex="1" parent="1">
          <mxGeometry x="398.32" y="460" width="120" height="50" as="geometry" />
        </mxCell>
        <mxCell id="-O9r-9XehU72l_ou3Ttp-25" value="&lt;font size=&quot;1&quot; color=&quot;#fffff0&quot;&gt;&lt;b style=&quot;font-size: 18px;&quot;&gt;Internet&lt;/b&gt;&lt;/font&gt;" style="text;html=1;strokeColor=none;fillColor=none;align=center;verticalAlign=middle;whiteSpace=wrap;rounded=0;" vertex="1" parent="1">
          <mxGeometry x="574" y="-34.209999999999994" width="70" height="50" as="geometry" />
        </mxCell>
        <mxCell id="-O9r-9XehU72l_ou3Ttp-54" style="edgeStyle=orthogonalEdgeStyle;rounded=0;orthogonalLoop=1;jettySize=auto;html=1;entryX=0.5;entryY=1;entryDx=0;entryDy=0;curved=1;strokeWidth=2;dashed=1;strokeColor=#4D4D4D;" edge="1" parent="1" source="-O9r-9XehU72l_ou3Ttp-31" target="-O9r-9XehU72l_ou3Ttp-25">
          <mxGeometry relative="1" as="geometry" />
        </mxCell>
        <mxCell id="-O9r-9XehU72l_ou3Ttp-55" style="edgeStyle=orthogonalEdgeStyle;rounded=0;orthogonalLoop=1;jettySize=auto;html=1;curved=1;strokeColor=#4D4D4D;" edge="1" parent="1" source="-O9r-9XehU72l_ou3Ttp-31" target="-O9r-9XehU72l_ou3Ttp-36">
          <mxGeometry relative="1" as="geometry" />
        </mxCell>
        <mxCell id="-O9r-9XehU72l_ou3Ttp-31" value="" style="sketch=0;outlineConnect=0;fontColor=#232F3E;gradientColor=none;fillColor=#0066CC;strokeColor=none;dashed=0;verticalLabelPosition=bottom;verticalAlign=top;align=center;html=1;fontSize=12;fontStyle=0;aspect=fixed;pointerEvents=1;shape=mxgraph.aws4.internet_gateway;" vertex="1" parent="1">
          <mxGeometry x="552" y="60" width="48" height="48" as="geometry" />
        </mxCell>
        <mxCell id="-O9r-9XehU72l_ou3Ttp-58" style="edgeStyle=orthogonalEdgeStyle;rounded=0;orthogonalLoop=1;jettySize=auto;html=1;curved=1;strokeColor=#4D4D4D;" edge="1" parent="1" source="-O9r-9XehU72l_ou3Ttp-42" target="-O9r-9XehU72l_ou3Ttp-13">
          <mxGeometry relative="1" as="geometry" />
        </mxCell>
        <mxCell id="-O9r-9XehU72l_ou3Ttp-42" value="" style="sketch=0;outlineConnect=0;fontColor=#232F3E;gradientColor=none;fillColor=#004C99;strokeColor=none;dashed=0;verticalLabelPosition=bottom;verticalAlign=top;align=center;html=1;fontSize=12;fontStyle=0;aspect=fixed;pointerEvents=1;shape=mxgraph.aws4.shield2;" vertex="1" parent="1">
          <mxGeometry x="411.82" y="161.75" width="41.5" height="41.5" as="geometry" />
        </mxCell>
        <mxCell id="-O9r-9XehU72l_ou3Ttp-43" value="&lt;font style=&quot;font-size: 10px;&quot; color=&quot;#004c99&quot;&gt;&lt;b&gt;Security Group&lt;br&gt;&lt;/b&gt;&lt;/font&gt;" style="text;html=1;strokeColor=none;fillColor=none;align=center;verticalAlign=middle;whiteSpace=wrap;rounded=0;" vertex="1" parent="1">
          <mxGeometry x="405.07" y="210" width="55" height="20" as="geometry" />
        </mxCell>
        <mxCell id="-O9r-9XehU72l_ou3Ttp-60" style="edgeStyle=orthogonalEdgeStyle;rounded=0;orthogonalLoop=1;jettySize=auto;html=1;curved=1;strokeColor=#4D4D4D;" edge="1" parent="1" source="-O9r-9XehU72l_ou3Ttp-47" target="-O9r-9XehU72l_ou3Ttp-50">
          <mxGeometry relative="1" as="geometry" />
        </mxCell>
        <mxCell id="-O9r-9XehU72l_ou3Ttp-62" style="edgeStyle=orthogonalEdgeStyle;rounded=0;orthogonalLoop=1;jettySize=auto;html=1;curved=1;strokeColor=#4D4D4D;" edge="1" parent="1" source="-O9r-9XehU72l_ou3Ttp-47" target="-O9r-9XehU72l_ou3Ttp-48">
          <mxGeometry relative="1" as="geometry" />
        </mxCell>
        <mxCell id="-O9r-9XehU72l_ou3Ttp-47" value="" style="rounded=1;whiteSpace=wrap;html=1;fillColor=#e1d5e7;strokeColor=#9673a6;strokeWidth=1;perimeterSpacing=2;dashed=1;glass=0;shadow=0;fillStyle=auto;" vertex="1" parent="1">
          <mxGeometry x="497.5" y="310" width="102.5" height="40" as="geometry" />
        </mxCell>
        <mxCell id="-O9r-9XehU72l_ou3Ttp-70" style="edgeStyle=orthogonalEdgeStyle;rounded=0;orthogonalLoop=1;jettySize=auto;html=1;curved=1;strokeColor=#4D4D4D;" edge="1" parent="1" source="-O9r-9XehU72l_ou3Ttp-48" target="-O9r-9XehU72l_ou3Ttp-15">
          <mxGeometry relative="1" as="geometry">
            <Array as="points">
              <mxPoint x="380" y="380" />
              <mxPoint x="380" y="380" />
            </Array>
          </mxGeometry>
        </mxCell>
        <mxCell id="-O9r-9XehU72l_ou3Ttp-48" value="" style="sketch=0;outlineConnect=0;fontColor=#232F3E;gradientColor=none;fillColor=#004C99;strokeColor=none;dashed=0;verticalLabelPosition=bottom;verticalAlign=top;align=center;html=1;fontSize=12;fontStyle=0;aspect=fixed;pointerEvents=1;shape=mxgraph.aws4.shield2;" vertex="1" parent="1">
          <mxGeometry x="403.5" y="350" width="41.5" height="41.5" as="geometry" />
        </mxCell>
        <mxCell id="-O9r-9XehU72l_ou3Ttp-49" value="&lt;font style=&quot;font-size: 10px;&quot; color=&quot;#004c99&quot;&gt;&lt;b&gt;Security Group&lt;br&gt;&lt;/b&gt;&lt;/font&gt;" style="text;html=1;strokeColor=none;fillColor=none;align=center;verticalAlign=middle;whiteSpace=wrap;rounded=0;" vertex="1" parent="1">
          <mxGeometry x="396.75" y="391.5" width="55" height="20" as="geometry" />
        </mxCell>
        <mxCell id="-O9r-9XehU72l_ou3Ttp-64" style="edgeStyle=orthogonalEdgeStyle;rounded=0;orthogonalLoop=1;jettySize=auto;html=1;curved=1;strokeColor=#4D4D4D;entryX=0.5;entryY=0;entryDx=0;entryDy=0;" edge="1" parent="1" source="-O9r-9XehU72l_ou3Ttp-50" target="-O9r-9XehU72l_ou3Ttp-18">
          <mxGeometry relative="1" as="geometry" />
        </mxCell>
        <mxCell id="-O9r-9XehU72l_ou3Ttp-50" value="" style="sketch=0;outlineConnect=0;fontColor=#232F3E;gradientColor=none;fillColor=#004C99;strokeColor=none;dashed=0;verticalLabelPosition=bottom;verticalAlign=top;align=center;html=1;fontSize=12;fontStyle=0;aspect=fixed;pointerEvents=1;shape=mxgraph.aws4.shield2;" vertex="1" parent="1">
          <mxGeometry x="453.5" y="350" width="41.5" height="41.5" as="geometry" />
        </mxCell>
        <mxCell id="-O9r-9XehU72l_ou3Ttp-51" value="&lt;font style=&quot;font-size: 10px;&quot; color=&quot;#004c99&quot;&gt;&lt;b&gt;Security Group&lt;br&gt;&lt;/b&gt;&lt;/font&gt;" style="text;html=1;strokeColor=none;fillColor=none;align=center;verticalAlign=middle;whiteSpace=wrap;rounded=0;" vertex="1" parent="1">
          <mxGeometry x="445" y="391.5" width="55" height="20" as="geometry" />
        </mxCell>
        <mxCell id="-O9r-9XehU72l_ou3Ttp-45" value="&lt;font size=&quot;1&quot; color=&quot;#ffffff&quot;&gt;&lt;b style=&quot;font-size: 16px;&quot;&gt;ACL&lt;/b&gt;&lt;/font&gt;" style="text;html=1;strokeColor=none;fillColor=none;align=center;verticalAlign=middle;whiteSpace=wrap;rounded=0;" vertex="1" parent="1">
          <mxGeometry x="513.75" y="317.5" width="70" height="25" as="geometry" />
        </mxCell>
        <mxCell id="-O9r-9XehU72l_ou3Ttp-52" value="" style="rounded=1;whiteSpace=wrap;html=1;fillColor=#e1d5e7;strokeColor=#9673a6;strokeWidth=1;perimeterSpacing=2;dashed=1;glass=0;shadow=0;fillStyle=auto;" vertex="1" parent="1">
          <mxGeometry x="500" y="155" width="30" height="96.5" as="geometry" />
        </mxCell>
        <mxCell id="-O9r-9XehU72l_ou3Ttp-57" style="edgeStyle=orthogonalEdgeStyle;rounded=0;orthogonalLoop=1;jettySize=auto;html=1;exitX=0;exitY=0.5;exitDx=0;exitDy=0;curved=1;strokeColor=#4D4D4D;" edge="1" parent="1" source="-O9r-9XehU72l_ou3Ttp-53" target="-O9r-9XehU72l_ou3Ttp-42">
          <mxGeometry relative="1" as="geometry" />
        </mxCell>
        <mxCell id="-O9r-9XehU72l_ou3Ttp-53" value="&lt;font color=&quot;#ffffff&quot;&gt;&lt;b&gt;ACL&lt;/b&gt;&lt;/font&gt;" style="text;html=1;strokeColor=none;fillColor=none;align=center;verticalAlign=middle;whiteSpace=wrap;rounded=0;" vertex="1" parent="1">
          <mxGeometry x="495" y="178.25" width="40" height="50" as="geometry" />
        </mxCell>
        <mxCell id="-O9r-9XehU72l_ou3Ttp-56" style="edgeStyle=orthogonalEdgeStyle;rounded=0;orthogonalLoop=1;jettySize=auto;html=1;curved=1;strokeColor=#4D4D4D;" edge="1" parent="1" source="-O9r-9XehU72l_ou3Ttp-36" target="-O9r-9XehU72l_ou3Ttp-53">
          <mxGeometry relative="1" as="geometry" />
        </mxCell>
        <mxCell id="-O9r-9XehU72l_ou3Ttp-59" style="edgeStyle=orthogonalEdgeStyle;rounded=0;orthogonalLoop=1;jettySize=auto;html=1;curved=1;strokeColor=#4D4D4D;" edge="1" parent="1" source="-O9r-9XehU72l_ou3Ttp-36" target="-O9r-9XehU72l_ou3Ttp-45">
          <mxGeometry relative="1" as="geometry" />
        </mxCell>
        <mxCell id="-O9r-9XehU72l_ou3Ttp-36" value="" style="sketch=0;outlineConnect=0;fontColor=#232F3E;gradientColor=none;fillColor=#4D27AA;strokeColor=none;dashed=0;verticalLabelPosition=bottom;verticalAlign=top;align=center;html=1;fontSize=12;fontStyle=0;aspect=fixed;pointerEvents=1;shape=mxgraph.aws4.router;" vertex="1" parent="1">
          <mxGeometry x="580" y="150" width="38" height="38" as="geometry" />
        </mxCell>
        <mxCell id="-O9r-9XehU72l_ou3Ttp-37" value="&lt;font color=&quot;#4d27aa&quot;&gt;Router Table&lt;br&gt;&lt;/font&gt;" style="edgeLabel;html=1;align=center;verticalAlign=middle;resizable=0;points=[];labelBackgroundColor=none;" vertex="1" connectable="0" parent="1">
          <mxGeometry x="628.32" y="192.49614698897085" as="geometry" />
        </mxCell>
        <mxCell id="-O9r-9XehU72l_ou3Ttp-65" value="&lt;font color=&quot;#0066cc&quot;&gt;Internet Gateway&lt;br&gt;&lt;/font&gt;" style="edgeLabel;html=1;align=center;verticalAlign=middle;resizable=0;points=[];labelBackgroundColor=none;" vertex="1" connectable="0" parent="1">
          <mxGeometry x="640" y="104.99614698897085" as="geometry" />
        </mxCell>
        <mxCell id="-O9r-9XehU72l_ou3Ttp-66" value="&lt;font color=&quot;#006600&quot;&gt;&lt;b&gt;172.0.2.0/24&lt;/b&gt;&lt;/font&gt;" style="text;html=1;strokeColor=none;fillColor=none;align=center;verticalAlign=middle;whiteSpace=wrap;rounded=0;" vertex="1" parent="1">
          <mxGeometry x="432.5" y="445" width="55" height="35" as="geometry" />
        </mxCell>
        <mxCell id="-O9r-9XehU72l_ou3Ttp-67" value="&lt;font color=&quot;#0066cc&quot;&gt;&lt;b&gt;172.0.1.0/24&lt;/b&gt;&lt;/font&gt;" style="text;html=1;strokeColor=none;fillColor=none;align=center;verticalAlign=middle;whiteSpace=wrap;rounded=0;" vertex="1" parent="1">
          <mxGeometry x="350" y="251.5" width="120" height="30" as="geometry" />
        </mxCell>
        <mxCell id="-O9r-9XehU72l_ou3Ttp-68" value="&lt;font color=&quot;#4d27aa&quot;&gt;&lt;b&gt;172.0.0.0/16&lt;/b&gt;&lt;/font&gt;" style="text;html=1;strokeColor=none;fillColor=none;align=center;verticalAlign=middle;whiteSpace=wrap;rounded=0;" vertex="1" parent="1">
          <mxGeometry x="340.07" y="90" width="120" height="30" as="geometry" />
        </mxCell>
      </root>
    </mxGraphModel>
  </diagram>
</mxfile>
